<?xml version="1.0" encoding="UTF-8" standalone="no"?>
<!-- Created with Inkscape (http://www.inkscape.org/) -->

<svg
   version="1.1"
   id="svg2"
   xml:space="preserve"
   width="2125.98"
   height="2834.6399"
   viewBox="6339.05 0 2125.98 2834.6399"
   sodipodi:docname="vecteezy_frames-with-style-art-nouveau-ornament-set_48576745.eps"
   xmlns:inkscape="http://www.inkscape.org/namespaces/inkscape"
   xmlns:sodipodi="http://sodipodi.sourceforge.net/DTD/sodipodi-0.dtd"
   xmlns="http://www.w3.org/2000/svg"
   xmlns:svg="http://www.w3.org/2000/svg"><defs
     id="defs6" /><sodipodi:namedview
     id="namedview4"
     pagecolor="#ffffff"
     bordercolor="#666666"
     borderopacity="1.0"
     inkscape:pageshadow="2"
     inkscape:pageopacity="0.0"
     inkscape:pagecheckerboard="0" /><g
     id="g8"
     inkscape:groupmode="layer"
     inkscape:label="ink_ext_XXXXXX"
     transform="matrix(1.3333333,0,0,-1.3333333,0,2834.6399)"><g
       id="g10"
       transform="scale(0.1)"><path
         d="M 63779.5,0 H 0 V 21259.8 H 63779.5 V 0"
         style="fill:none;fill-opacity:0;fill-rule:nonzero;stroke:none"
         id="path12" /><path
         d="m 39639.3,4389.5 c -52.2,46.4 -118.5,71.3 -197.3,73.9 -48.4,1.7 -96.7,3.7 -145.1,5.8 l -5025.6,18.2 h -5.9 c -143.5,0 -259.2,-19.7 -364.3,-62.2 -91.9,-37.1 -172.9,-66.2 -247.7,-89 -17.8,-5.4 -35.3,-8.1 -52,-8.1 -45.8,0 -87.9,20.8 -125,61.8 -52.7,58.4 -64.4,115.4 -36.7,179.3 7,16.1 14.1,32.1 21.2,48.2 26.8,60.8 54.5,123.6 76.3,188 3.2,9.4 6.4,18.8 9.7,28.3 24.8,71.8 50.4,146.1 54.2,222.2 9.3,190.4 9.5,379 0.4,560.7 -9.2,183.1 -81.5,341.4 -209,457.8 -46.8,42.7 -88.2,63.5 -126.8,63.5 -69.8,0 -111.5,-65.8 -136.9,-115.3 -22.6,-44.3 -48.7,-68.8 -73.4,-68.8 -23.5,0 -50.8,21.6 -76.7,60.7 -36.2,54.7 -36.1,117 -36.1,182.9 0,11.7 0,23.5 -0.1,35.1 -3.1,190 -6.5,3655.8 -9.6,6713.6 -2.5,2514.3 -4.8,4889.1 -6.5,5045.5 -0.6,50.5 -1.2,107.7 18.5,149 16.4,34.5 52.5,69.4 89.8,87.5 10.4,-8 28.9,-28.1 40.7,-40.9 10.2,-11.2 20.9,-22.8 30.5,-32.1 0.5,-1 1.3,-2.9 1.8,-4.3 1.5,-3.7 3.4,-8.4 6.2,-13.1 34.8,-58.1 78.3,-87.6 129.4,-87.6 28.6,0 58.9,9.7 89.9,28.9 51.4,31.7 97.2,76.4 125.6,122.6 75.8,123.5 114,232.9 120.2,344.4 1.6,29.9 3.1,59.9 4.6,89.9 4.8,98.4 9.8,200.3 21.9,299 19.8,162 -1.3,316.7 -64.5,473 -9.5,23.6 -18.9,47.2 -28.3,70.9 -13.8,34.6 -28,70.5 -42.5,105.6 -39.2,95.2 -29.7,165.2 31,226.9 36.1,36.7 76.1,54.5 122.5,54.5 30.6,0 64.6,-7.6 104,-23.1 9,-3.6 18.1,-7.1 27.2,-10.6 33.1,-12.8 67.2,-26 98.3,-42.1 136.6,-71.1 287.4,-104.3 474.5,-104.3 5.2,0 10.5,0.1 15.7,0.1 l 4953.3,25.9 c 154.7,5.1 269.8,68.5 342.1,188.3 36,59.9 39.9,119.6 11.7,182.7 -40.6,90.7 -117.3,145 -205.1,145 -70.8,0 -142.2,-35 -200.8,-98.5 l -12.4,-13.4 7.1,-16.8 c 1.6,-4 3.4,-8.3 5.2,-12.6 4.1,-10.1 8.5,-20.8 13.2,-31.4 24.5,-54.5 29.4,-98.6 14.5,-131.1 -13.5,-29.6 -45,-52.1 -93.6,-66.6 -54.2,-16.3 -115,-19.7 -173.8,-23 -18.7,-1.1 -37.3,-2.2 -55.8,-3.6 -1.9,-0.1 -3.8,-0.2 -5.7,-0.2 -10.4,0 -21.8,1.9 -33.9,3.9 -13.9,2.3 -28.2,4.7 -43.5,4.7 h -2.7 c -76.4,-1.5 -153.9,-3.7 -228.9,-5.9 l -4171.6,-9.9 c -19.1,-1.1 -38.2,-1.6 -56.8,-1.6 -208.5,0 -389.8,66.5 -554.3,203.3 -93,77.2 -188.6,137 -284,177.7 -52.1,22.2 -103.5,33.4 -152.9,33.4 -79.9,0 -150.3,-28.9 -209.2,-85.8 -106.4,-103 -137.7,-225.3 -90.4,-353.8 25,-67.8 51,-125.4 79.7,-176 32.6,-57.7 67.4,-115.3 101,-171.1 41.3,-68.5 84.1,-139.4 122.9,-210.6 72.2,-132.1 51.6,-269.8 29.7,-415.6 -4.3,-28.6 -8.8,-58.2 -12.4,-87.4 -1.1,-8.9 -12.2,-22.8 -21.2,-33.9 l -4.8,-6.1 c -23.6,-30 -45.7,-45.8 -63.8,-45.8 -25.1,0 -48.1,31.1 -63,57.2 -34.4,60.2 -78.6,121.8 -146.3,121.8 -41.6,0 -85.7,-23 -143,-74.6 -116.3,-104.6 -179.2,-243.8 -182,-402.4 -3.1,-181.4 -2.4,-365.8 -1.7,-544.1 0.2,-42.4 0.3,-84.8 0.4,-127.2 0.3,-89.7 0.3,-946.4 0.4,-2132.1 0.1,-3269.1 0.3,-9354.3 5.6,-9603 4.7,-226.9 74.4,-398 212.9,-522.9 46.6,-42 87.9,-62.4 126.4,-62.4 51.6,0 95.5,35.8 134.4,109.8 16.2,30.8 34.6,65.7 57.5,65.7 2.9,0 6.1,-0.5 9.5,-1.4 27.9,-7.5 56.4,-39.8 81.6,-68.3 l 6.8,-7.7 c 7.8,-8.8 13.2,-27.5 16.1,-55.6 13.6,-130.6 28.9,-278.6 -35.5,-407.7 -37.3,-74.7 -84.6,-146.9 -130.3,-216.8 -15.4,-23.6 -30.8,-47.2 -46,-71 -17.2,-27 -36.1,-54.1 -54.4,-80.2 -32.1,-45.8 -65.3,-93.2 -91.8,-144 -74.1,-142.2 -64.1,-276.1 28.8,-387.5 65.6,-78.5 149.6,-118.3 249.7,-118.3 35.6,0 73.6,5.1 113,15.3 51.1,13.3 90.6,28.4 124.3,47.4 81.4,46 168.1,96.3 250.5,153 161,110.8 324.9,162.3 515.6,162.3 7.8,0 15.6,0 23.4,-0.2 142.4,-3.1 332.7,-4.6 581.9,-4.6 461.9,0 1041.3,5.4 1506.9,9.7 344.1,3.2 641.3,6 815.5,6 h 21 c 394.4,-0.6 788.7,-0.8 1183.1,-1 230.6,-0.1 461.2,-0.2 692.2,-0.4 l 19.9,0.1 c 13.2,0 27.1,-0.3 39.6,-2.6 40,-7.4 71.1,-45.5 68.6,-71.4 -3.4,-34.9 -35.4,-63.4 -76.1,-67.9 -3.3,-0.4 -7,-0.6 -11.7,-0.6 -3.6,0 -7.1,0.1 -10.7,0.2 -3.9,0.1 -7.8,0.2 -11.7,0.2 l -251.4,0.5 c -183.6,0.3 -367.2,0.7 -550.8,0.8 h -111.7 c -110,0 -219.9,-0.1 -329.9,-0.1 -110,-0.1 -219.9,-0.2 -329.8,-0.2 -62.4,0 -124.9,0.1 -187.6,0.1 -127,0 -247.7,-70.1 -322.9,-187.5 -78.7,-122.9 -90.2,-273.5 -30.6,-402.9 71.5,-155.3 200,-236.4 382.1,-241.1 58.9,-1.5 116,-4.2 166,-20.2 20.3,-6.5 46,-19.1 53.7,-42.4 6.7,-20.3 -0.9,-47.2 -21.5,-75.9 -18.6,-26 -40.6,-52.4 -69.2,-83.1 -121.6,-130.4 -106.1,-320.5 -28,-440.8 82.6,-127.3 195,-218.6 334.3,-271.5 138.2,-52.5 277,-79.1 412.6,-79.1 88.2,0 176.4,11.3 262.2,33.6 208.6,54.1 343.5,173 401,353.3 41.8,131.1 25.3,261.7 -45.3,358.3 -68.9,94.3 -183.8,148.4 -315.2,148.4 -10.9,0 -22.1,-0.4 -33.3,-1.1 -40.4,-2.7 -80.9,-8 -120.1,-13.1 -24.6,-3.3 -50.1,-6.6 -75.1,-9.2 -5.6,-0.6 -11.1,-0.9 -16.5,-0.9 -41.7,0 -76.8,17.3 -107.4,53 -50.3,58.6 -47.5,130.6 7.7,202.8 73.7,96.5 175.2,145.4 301.7,145.4 46.7,0 97,-6.8 149.6,-20.2 293.6,-75 470.3,-375.5 402.4,-684.2 -7.7,-35.3 -15.9,-70.6 -24.2,-105.9 -28.1,-121.2 -57.2,-246.5 -68.1,-372.2 -20.2,-234.4 -30.8,-486.1 -33.5,-792 -0.1,-15.5 -4.6,-134.6 -2.7,-156.1 2.8,-30.9 5.3,-60.2 2.3,-88.3 -10.9,-99.9 -63.6,-111.5 -102.3,-111.5 -16.9,0 -36.2,2.7 -57.3,8 -7.2,1.8 -15.1,2.7 -23.6,2.7 -21.1,0 -49.9,-6 -67.4,-23.1 -49.5,-48 -47.6,-156.4 -11.4,-211.3 28.4,-43.2 85.3,-72.1 141.7,-72.1 12.8,0 25.2,1.5 37,4.4 100,25 164.1,95.8 185.4,204.7 13.7,69.6 15.8,140.1 16,199.8 0.2,45 0.3,90 0.3,134.9 0,0 -1.7,297.6 -0.9,398.2 1.6,184.3 31.8,329.8 95.2,457.9 20.5,41.2 40.4,83.4 59.7,124.2 21.2,44.7 43.1,90.9 65.5,135.7 175.5,351.4 55.3,681.7 -115.8,873.7 -136.2,152.9 -342.9,240.6 -566.9,240.6 -123,0 -244,-27.7 -349.9,-80 -141.4,-69.8 -240.9,-178.7 -295.8,-323.7 -41.7,-110 -22.3,-248 49.3,-351.7 65.1,-94.2 164.1,-146.1 278.8,-146.1 25.7,0 52.3,2.6 79.2,7.7 77.7,14.7 145.8,23.3 208.3,26.3 2.2,0.2 4.4,0.2 6.6,0.2 63.9,0 132,-43.7 151.9,-97.4 22.7,-61.5 5.4,-115 -54.5,-168.4 -30.5,-27.2 -62.6,-48.1 -92.6,-60.5 -97.9,-40.4 -197.6,-60.8 -296.1,-60.8 -44.7,0 -90.2,4.2 -135.1,12.5 -128.8,23.8 -245.1,106.2 -311.1,220.5 -59.9,103.6 -70.6,223.2 -30.4,336.7 15.6,44.2 26,89 30.9,133.2 14.9,136.9 -55.7,229.1 -188.9,246.7 -43.4,5.8 -91,8.6 -145.3,8.6 -27,0 -55.7,-0.7 -90.6,-2.1 -4.2,-0.2 -8.3,-0.3 -12.5,-0.3 -86.5,0 -167.8,37 -222.9,101.4 -59.2,69 -83.2,162.6 -67.6,263.4 24.7,159.3 141.6,255.9 312.8,258.5 l 1936.5,-1.2 c 76.5,2.2 140.6,24.5 190.4,66.3 35.6,29.9 54.7,64.9 55.2,101.2 0.5,35.7 -17.1,70.6 -50.9,100.7"
         style="fill:#c9c4bc;fill-opacity:1;fill-rule:nonzero;stroke:none"
         id="path14" /><path
         d="m 46548.3,11445 c -0.7,3155 -1.4,6417.3 -3.3,6676.8 -0.7,87.6 -9.1,182.1 -25.1,280.9 -21.3,132.3 -73.8,239.4 -155.8,318.5 -42,40.5 -109.8,71.8 -181.1,83.7 -5.2,0.9 -10.3,1.3 -15.2,1.3 -53.3,0 -70.5,-48 -81.9,-79.7 -4.4,-12.2 -8.5,-23.8 -13.6,-31.9 -22.9,-36.9 -52.1,-58 -79.9,-58 -28.5,0 -55.4,22.8 -73.9,62.5 -21.5,46.2 -28.9,101.7 -33.3,149.9 -16.5,179.5 31.5,344.6 142.6,490.7 59.5,78.3 122.3,161.9 179.3,248.1 33,50 58.7,103.6 74.2,154.9 40,132.8 8.8,251 -90.3,342 -68.6,63 -146.4,96.3 -224.9,96.3 -41.3,0 -82.5,-9.2 -122.5,-27.2 -125,-56.4 -243.8,-130.2 -354.7,-200.9 -99.8,-63.7 -220.6,-130.8 -359.6,-146.1 -14.7,-1.6 -30,-2.4 -47,-2.4 -34.2,0 -68.5,3.2 -104.8,6.6 -35.4,3.3 -72,6.6 -108.5,6.8 l -4491.1,7.7 c -65.3,0.2 -125.9,9.8 -175.4,27.7 -53.2,19.3 -85.7,43.3 -99.4,73.5 -14.5,32.3 -10.1,77.4 13.7,137.9 4.8,12.3 7.4,24.5 10.2,37.3 1.2,5.7 2.4,11.6 4,17.9 l 4.1,16.8 -13,11.3 c -5.1,4.5 -10,9.2 -14.7,13.7 -11.3,10.9 -23.1,22.2 -37.7,30.7 -40.8,23.8 -86.3,36.4 -131.6,36.4 -56.9,0 -109.9,-19.9 -149.4,-55.8 -71,-64.7 -86.2,-167.1 -39.6,-267.1 49.9,-107.4 143,-173.7 269.3,-191.6 107.7,-15.3 210.8,-23.2 306.6,-23.5 1059.5,-2.5 2136.8,-4.1 3178.5,-5.6 416.4,-0.7 832.7,-1.3 1249,-1.9 l 2,-0.1 c 17.9,0 35.9,0.4 53.9,0.8 17.6,0.4 35.3,0.8 52.9,0.8 41.7,0 72.9,-2.3 101,-7.5 53.5,-10 107,-15 159,-15 90.4,0 180.4,15.2 267.4,45.2 85.8,29.6 178.9,65.2 284.4,108.9 25.8,10.7 50.6,16.1 73.7,16.1 46.6,0 90.8,-22.2 134.9,-67.9 54.4,-56.2 64.1,-121.1 30.6,-204.1 -15.7,-38.9 -32.4,-78.2 -48.5,-116.3 l -15,-35.1 c -62.4,-147.8 -90.6,-272.4 -88.7,-391.9 2.8,-178.3 9.1,-336.2 19.2,-482.5 8.9,-129.6 45.1,-238.7 107.4,-324.2 40.4,-55.3 92.2,-102.8 145.9,-133.7 27.5,-15.8 52.6,-23.5 76.7,-23.5 48,0 87.1,30.4 116.2,90.5 l 1.4,3 c 22.5,46.5 36.9,72.8 72.2,72.8 1.6,0 3.3,0 5,-0.1 59.8,-3.7 84.5,-52.6 94.7,-93.1 13.4,-53.1 20.9,-114.2 22.1,-181.5 4.2,-225.1 7.7,-4803.8 10.3,-8147.1 1.5,-1959.9 2.7,-3507.9 3.5,-3637.8 0.3,-47.1 -8.1,-99.9 -24.3,-152.7 -8.9,-29.1 -32.6,-78.7 -91.4,-83.5 -2.2,-0.1 -4.3,-0.2 -6.4,-0.2 -34.4,0 -52.2,25.9 -73,73.7 l -3.4,7.7 c -5.9,13.9 -12,28.2 -21,41.9 -24.5,37.4 -57.9,58 -94.1,58 -17.1,0 -34.4,-4.5 -51.5,-13.5 -45.8,-24 -93.3,-51.4 -131,-88.9 -68.5,-68.2 -111.6,-158.1 -131.6,-274.6 -46.2,-269.1 -30.4,-536.9 -11.6,-740.2 7.4,-79.3 32.5,-156.7 56.8,-231.5 l 6.2,-19.2 c 12.2,-37.8 28,-74.4 43.3,-109.7 14.4,-33.4 29.3,-67.8 40.6,-102.2 17.4,-53.3 8.8,-111.6 -23.2,-156 -30,-41.8 -76.8,-65.9 -128.2,-66.3 h -2.6 c -66.1,0 -135.6,15.9 -190.7,43.6 -157.1,79 -327.4,117.4 -520.8,117.4 l -4891.4,2.5 h -48.8 c -56.9,0 -117.4,-0.4 -176.9,-4.6 -124.3,-8.8 -201.8,-61 -236.9,-159.5 l -3.4,-9.5 3.4,-9.5 c 36.2,-101.4 116.9,-156.6 233.3,-159.8 157.9,-4.2 300.2,-7.8 443.4,-7.8 10.6,0 21.3,0.1 31.9,0.1 127,0.5 255.9,2.3 380.7,4.1 137.9,1.9 280.5,3.9 420.7,4.2 h 15.3 c 117.8,0 237.7,-2 353.6,-3.9 98.9,-1.5 201.1,-3.2 301.8,-3.6 177,-0.8 308.5,-129 312.6,-304.7 4.2,-181.1 -116.3,-306.2 -299.9,-311.3 -22,-0.6 -44,-0.8 -66,-1.1 -49.1,-0.5 -99.8,-1.1 -149.9,-5.8 -100.7,-9.5 -167.7,-38.6 -204.6,-89.2 -36.1,-49.3 -43.3,-116.4 -22.8,-211.2 5.8,-26.5 14,-52.3 22,-77.2 10,-31.5 19.5,-61.2 24.1,-91.5 6.8,-44.8 16.1,-106.1 1,-151.2 -45.9,-137.3 -144.9,-237.7 -286.5,-290.3 -74.1,-27.6 -153.8,-41.5 -236.8,-41.5 -35.3,0 -71.5,2.5 -107.8,7.5 -98.2,13.5 -176.8,46.1 -240.4,99.5 -77.8,65.4 -93.9,151.5 -42,224.9 28.7,40.6 66.4,58.7 122.3,58.7 15,0 31.5,-1.3 50.5,-4 23.3,-3.3 47.2,-7.9 70.3,-12.4 34.1,-6.6 69.4,-13.4 105.1,-16.6 21.4,-1.9 42,-2.9 61.1,-2.9 135.9,0 230.9,49.2 290.5,150.2 64.9,109.9 76.6,236.2 34,365.2 -44.3,133.9 -136.7,231.8 -282.4,299.2 -115.6,53.4 -235.4,80.5 -356.1,80.5 -288.5,0 -540.8,-158.1 -674.9,-423 -71.7,-141.7 -90.2,-298.8 -56.4,-480.3 22.6,-120.8 73.9,-229.9 123.5,-335.5 13.3,-28.1 27,-57.3 39.8,-86 73.3,-163.9 107,-295.8 109.1,-427.9 0.4,-26.3 1.6,-101.1 1.6,-101.1 l 2.1,-0.9 -0.1,-48.9 -0.2,-323.1 c 0.1,-44 0.1,-87.9 0.3,-131.9 0.3,-59.7 2.4,-130.2 16,-199.8 21.4,-108.9 85.5,-179.7 185.4,-204.7 11.9,-2.9 24.3,-4.4 37.1,-4.4 56.3,0 113.3,28.9 141.7,72.1 36.2,54.9 38,163.3 -11.4,211.3 -17.5,17.1 -46.3,23.1 -67.4,23.1 -8.5,0 -16.5,-0.9 -23.7,-2.7 -21,-5.3 -40.3,-8 -57.2,-8 -38.7,0 -91.4,11.6 -102.3,111.5 -3.1,28.1 -0.5,57.4 2.3,88.4 1.8,21.4 -9.2,484.9 -10.8,651.6 -1.2,122.2 -13.9,256.8 -38.8,411.4 -12.1,75.3 -32.4,149.9 -52.1,222 -11,40.3 -22.4,82 -32.1,123.1 -26.1,110.5 -26.8,214.4 -2,309 70.1,268 325,408.3 540.5,408.3 26.6,0 52.9,-2.1 78.3,-6.2 114.1,-18.5 198.1,-70 249.8,-153.1 33,-52.9 38.7,-108.9 15.8,-153.6 -22.9,-44.7 -71.8,-72.8 -134.3,-77 -2.6,-0.1 -5.3,-0.2 -8,-0.2 -12,0 -24.6,1.5 -37.9,3.1 -10.9,1.3 -22.3,2.7 -34,3.3 -20.6,1 -41.3,2.3 -62,3.7 -42.3,2.7 -86,5.5 -129.4,5.5 -11.4,0 -22.8,-0.2 -34.2,-0.6 -102.8,-3.9 -188.9,-58.1 -242.6,-152.5 -51.2,-90.1 -69.5,-193.2 -54.3,-306.3 22.6,-168.9 125.1,-290 304.5,-359.8 111.5,-43.4 228.4,-65.4 347.3,-65.4 109,0 222.5,18.5 337.2,55 131.7,41.8 249.6,113.1 350.4,211.9 153.8,150.7 167.9,366.7 34.3,525.4 -22.5,26.7 -47.9,58.8 -64.7,93.4 -11.9,24.5 -13.1,48.8 -3.5,68.2 9.9,19.9 30.6,34 58.4,39.6 17.2,3.4 35.5,3.9 55,4.5 14.5,0.4 29.4,0.8 44.6,2.5 18.6,2.1 38,3.5 56.8,4.9 50,3.8 101.7,7.7 150.6,23.4 185.2,59.2 287.2,222.7 272.7,437.3 -11.5,170.1 -154.3,329.8 -325.2,363.6 -37.7,7.4 -75.3,8.1 -113.9,8.1 l -71.6,-0.1 c -329.2,0 -658.3,-0.2 -987.4,-0.4 -210.7,-0.1 -421.5,-0.3 -632.2,-0.4 h -18.3 c -15.6,0 -28.3,0.5 -39.6,3.4 -26.9,6.7 -58.8,49.5 -59,67.4 -0.2,25.6 28.5,62 64.4,69.1 7.6,1.5 16.2,2.1 28,2.1 5.5,0 11,-0.1 16.5,-0.2 5,-0.2 9.9,-0.3 14.7,-0.3 17.6,-0.1 35.2,-0.6 52.8,-1 21.2,-0.5 43.2,-1 65,-1 h 3.7 l 4743.7,-20.9 h 2.4 c 72.3,0 128.1,-9.6 170.6,-29.4 87.9,-40.9 173.1,-93.8 255.5,-145 12,-7.5 24.1,-14.9 36.1,-22.4 36,-22.2 71.8,-46.9 106.4,-70.7 54.7,-37.5 111.1,-76.4 171.1,-108 53.1,-28 107.4,-42.2 161.4,-42.2 71.1,0 139.3,24.3 202.8,72.1 133.2,100.4 166.8,249.7 92.1,409.6 -51.7,110.9 -119.5,226.2 -207.1,352.7 -120.7,174 -167.9,376.9 -144.3,620.2 6.5,67.8 43.1,123.2 85.1,128.8 4.5,0.6 8.9,1 13,1 40.3,0 56.7,-30.2 82.3,-83.6 l 1,-2 c 28.9,-60.1 74.7,-93.2 129.1,-93.2 28.6,0 58.2,9.2 88.1,27.5 46.9,28.6 91.9,73.5 123.4,123.1 80.1,126.3 118.6,277.9 117.5,463.4 -1.3,226.7 -1.8,2789.1 -2.4,5501.9"
         style="fill:#c9c4bc;fill-opacity:1;fill-rule:nonzero;stroke:none"
         id="path16" /><path
         d="m 14849.2,1241.8 c -13.6,75.2 -62.5,138.6 -137.8,178.7 -24.5,13 -52,23 -79.4,28.9 l -22.9,4.8 c -76.2,16.3 -155.1,33.1 -234,45.8 -66.4,10.7 -84.5,47.7 -92.4,74.6 -8,27.6 -2.8,54.9 48.8,98.3 l 1.4,1.1 c 37.1,31.3 75.5,63.6 111.9,97.9 79.1,74.5 118.7,156.8 121.3,251.5 1.4,56.1 3.8,113.4 6.1,168.7 4,95 6.5,2614.5 5.5,5203.4 -1.7,4494.9 -4.2,10650.9 -6.6,11146 -0.5,100.1 -4.3,192.1 -11.7,281.2 -12.1,147.7 -96.8,235.9 -226.4,235.9 -30.2,0 -62.8,-4.8 -97.1,-14.2 -19.2,-5.3 -38.3,-11.1 -57.4,-16.8 -39,-11.7 -75.9,-22.7 -113.2,-30 -15.1,-3 -30.6,-4.5 -44.8,-4.5 -14.4,0 -27.3,1.5 -38.4,4.5 -100.3,27.3 -178.3,88.3 -231.8,181.3 -76.6,133.4 -92.6,288.3 -47.5,460.2 20.1,76.5 59.5,131 117.2,162.2 16.4,8.9 34.5,13.6 52.2,13.6 42.3,0 78.1,-26.1 91,-66.6 7.1,-22.1 5.7,-53.3 4.3,-83.4 l -0.6,-14.8 c -1.3,-31.4 -3.9,-62.5 -6.8,-95.5 -5.1,-60.4 -10.4,-122.7 -6.3,-185.7 7.7,-116 81.9,-208.8 198.4,-248.3 65,-22 127.7,-33.2 186.4,-33.2 161.2,0.1 294.6,83.7 385.7,242.1 176.8,307.1 114.7,718 -141.4,935.4 -141.2,120 -296.7,178.2 -475.3,178.2 -42.7,0 -87.4,-3.4 -132.7,-10.3 -138,-20.9 -262.1,-73.5 -405.9,-146 -143.3,-72.3 -281.5,-107.4 -422.4,-107.4 h -8.4 c -162.2,1.7 -330.2,2.4 -513.6,2.4 -181.7,0 -374.1,-0.7 -605.5,-2.3 l -8.4,-0.1 c -139.2,0 -281.3,24.9 -422.2,74.1 -267.9,93.3 -544.5,142.9 -822.5,147.4 -159.9,2.6 -317.7,3.9 -468.9,3.9 -49.2,0 -98.5,-0.1 -147.7,-0.4 -61.6,-0.4 -127.2,-6.5 -206.64,-19.3 -90.22,-14.5 -166.85,-55.2 -221.6,-117.8 -36.08,-41.2 -60.25,-90.2 -66.3,-134.4 -10.43,-76.3 57.23,-101.1 82.71,-110.4 6.25,-2.3 14.04,-5.2 17.19,-7.1 13.56,-8.2 16.08,-15.9 16.03,-17 -0.18,-0.8 -2.39,-4.4 -9.87,-8.6 -23.8,-13.5 -58.94,-21.7 -96.46,-22.5 -27.11,-0.6 -55.7,-0.9 -87.4,-0.9 -48.93,0 -98.89,0.7 -147.21,1.4 -47.26,0.6 -96.12,1.3 -144.36,1.3 l -101.84,0.1 c -126.96,0 -1553.9,-0.2 -1680.86,-0.4 -126.89,-0.1 -253.79,-0.3 -380.69,-0.3 h -62.72 c -207.6,0 -422.28,0.1 -633.25,2.5 -33.76,0.4 -62.31,6.2 -80.39,16.2 -5.23,3 -14.17,14.4 -19.14,26.3 5.79,2.9 13.29,6.2 18.57,8.4 l 3.23,1.4 c 42.23,18.4 87.13,43.6 99.84,91.5 12.6,47.6 -13.93,91.2 -38.45,123.9 -27.75,37 -67.16,72 -117.13,104 -85.66,54.8 -181.07,62.4 -254.61,62.9 l -17.72,0.1 c -142.4,0.9 -289.64,1.8 -434.56,1.8 -120.56,0 -227.99,-0.6 -328.39,-2 -199.08,-2.6 -401.74,-35.4 -619.55,-100.2 -206.58,-61.4 -429.37,-118.3 -658.83,-118.3 -25.46,0 -51.08,0.7 -76.12,2.1 -123.37,6.7 -254.78,9.9 -413.57,9.9 -114.87,0 -231.51,-1.7 -344.3,-3.3 -37.41,-0.5 -74.81,-1 -112.2,-1.5 -7.3,-0.1 -14.6,-0.2 -21.87,-0.2 -235.71,0 -435.69,50.6 -611.38,154.6 -116.43,68.9 -237.08,108.7 -358.59,118.2 -25.7,2 -51.33,3.1 -76.19,3.1 -181.52,0 -336.42,-52.8 -460.4,-156.7 -161.78,-135.7 -257.55,-324.1 -269.68,-530.5 -11.86,-201.7 57.97,-398.6 191.53,-540.4 95.74,-101.6 205.61,-153.2 326.55,-153.2 27.55,0.1 55.87,2.8 84.15,8.3 216.8,42 319.72,193.5 289.83,426.8 -4,31.2 -9.84,61.7 -15.49,91.3 -3.66,19.2 -7.13,37.3 -10.14,55.6 -7.5,45.7 3.68,87.3 34.17,127.3 17.2,22.6 40.47,35.1 65.52,35.1 13.31,0 26.69,-3.5 39.76,-10.4 54.48,-28.6 92.43,-70.4 116,-128 36.39,-88.8 43.7,-181.3 43.49,-292.8 -0.25,-124.3 -45.12,-221.9 -137.2,-298.6 -83.73,-69.6 -152.96,-100.7 -224.46,-100.7 -14.96,0 -30.32,1.4 -45.67,4.2 -53.11,9.7 -94.64,20.9 -130.69,35.3 -42.12,16.8 -82.22,25.3 -119.18,25.3 -122.23,0 -207.85,-91.7 -229.06,-245.2 -3.18,-23 -3.12,-44.9 -3.05,-66 l 0.01,-2.5 c 0.12,-36.5 0.42,-72.9 0.73,-109.4 0.38,-44 0.75,-87.9 0.79,-131.9 0.19,-248.1 0.31,-4673.5 0.42,-8578 0.08,-3246.8 0.17,-6313.4 0.29,-6518.9 0.06,-121.6 0.29,-243.2 0.53,-364.8 0.55,-289.4 1.13,-588.7 -0.69,-883 -1.07,-173.3 63.69,-311 198,-420.8 32.88,-26.9 61.98,-57.8 84.16,-89.2 9.81,-14 20.75,-34.6 17.08,-53.6 -2.7,-14 -13.42,-27.1 -31.85,-39.1 -35.27,-22.9 -85.8,-35.4 -126.4,-45.5 -30.86,-7.6 -62.56,-12.8 -96.12,-18.2 -32.23,-5.3 -65.55,-10.7 -98.75,-18.6 -113.62,-27 -190.31,-99.6 -215.94,-204.6 -24.44,-99.9 9.59,-193.6 101.14,-278.5 64.86,-60.098 144.36,-98.699 229.88,-111.699 137.05,-20.801 242.47,-31.199 341.84,-33.699 20.92,-0.5 42.13,-0.801 64.83,-0.801 74.67,0 150.1,2.898 223.06,5.801 39.88,1.5 81.12,3.101 121.5,4.199 180.06,4.902 308.03,91.301 380.36,256.899 3.53,8.1 7,16.2 10.46,24.3 14.34,33.6 27.88,65.3 45.24,93.2 29.53,47.4 67.11,70.5 114.98,70.5 l 3672.46,-0.8 c 59.78,-0.5 114.08,-9.8 157.04,-26.8 104.08,-41.3 157.93,-125.4 164.61,-257.2 0.24,-4.6 0.52,-9.1 0.81,-13.7 2.84,-44.798 0.35,-50.399 -13.63,-58.899 -35.39,-21.699 -31.92,-61.598 -29.84,-85.399 0.4,-4.601 0.91,-10.402 0.86,-13.101 l -1.01,-62.899 62.72,5.598 c 1.25,0.102 2.59,0.102 3.98,0.102 2.59,0 5.26,-0.102 7.92,-0.2 3.61,0 7.24,-0.101 10.74,-0.101 12.63,0 46.17,0 68.2,26.902 16.58,20.297 44.82,61.297 47.66,107.699 3.63,58.899 -1.77,116.598 -7.53,165.298 -23.04,195 -155.58,333.9 -345.9,362.5 -80.42,12.1 -160.25,13.6 -248.78,14.2 -205.31,1.5 -3468.93,5.2 -3699.92,7.1 h -4.44 c -176.72,0 -311.23,-84.2 -399.81,-250.2 -10.29,-19.3 -19.23,-38.8 -27.87,-57.6 -10.57,-23 -20.54,-44.8 -32.21,-64.7 -47.58,-81.2 -98.21,-90.6 -132.16,-90.6 -5.75,0 -11.75,0.3 -17.84,1 -15.75,1.6 -31.55,3.2 -47.36,4.8 -79.49,8 -154.58,15.6 -227.35,33.3 -46.77,11.4 -96.37,38 -132.69,71 -38.54,35 -56.26,75.6 -49.86,114.3 6.64,40.3 39.38,75.9 89.85,97.9 19.06,8.3 40.92,14 64.05,20.1 18.01,4.7 36.62,9.6 55.44,16.1 17.44,6 35.21,11.5 54.01,17.3 52.92,16.2 107.63,33.1 157.38,63.3 57.74,35.1 93.41,88.4 100.43,150.1 7.16,62.8 -17.51,126.9 -67.67,175.8 -33.53,32.7 -72.4,56.3 -109.99,79 -11.32,6.9 -22.63,13.8 -33.69,20.8 -31.95,20.5 -64.61,40.5 -96.19,59.8 -26.46,16.2 -53.83,33 -80.32,49.8 -78.59,49.7 -113.03,120.9 -111.7,231 3.4,281.8 2.27,568.2 1.18,845.1 l -0.45,117.1 c -1.05,291.9 -5.83,14383.6 -5.75,14488.8 0.22,257.3 2.21,519.1 4.13,772.2 0.67,88.4 1.35,176.8 1.94,265.2 l 0.04,8.6 c 0.05,18 0.1,35 3.08,48.7 2.87,13.2 11.94,43.9 34.28,43.9 10.88,0 24.66,-5.8 38.8,-16.2 18.28,-13.5 35.74,-29.3 54.22,-46.1 4.65,-4.2 9.3,-8.4 13.97,-12.6 67.63,-60.6 147.55,-91.3 237.54,-91.3 35.47,0 73.33,4.8 112.54,14.3 128.76,31.3 227.76,114.5 311.55,261.9 106.57,187.5 148.5,402 121.24,620.3 -17.41,139.5 -62.47,339.1 -251.89,461 -78.68,50.7 -162.02,76.4 -247.71,76.4 -79.8,0 -156.9,-22.4 -229.17,-66.4 -123.54,-75.3 -173.91,-201.3 -149.7,-374.5 2.6,-18.6 5.92,-37 9.12,-54.7 5.9,-32.6 11.48,-63.4 12.26,-93.1 0.92,-35.1 -9.74,-65.1 -30.82,-86.8 -19.05,-19.5 -45.28,-30.3 -73.88,-30.3 -19.51,0 -39.36,4.9 -59.02,14.5 -64.36,31.6 -106.89,84.2 -130.01,160.9 -36.55,121.3 -22.2,248.8 40.43,358.9 65.16,114.5 174.11,195.7 306.78,228.7 36.82,9.2 74.95,13.6 116.53,13.6 62,0 125.05,-10.1 183.94,-21 33.49,-6.3 66.97,-12.8 100.46,-19.3 118.53,-23 241.09,-46.8 364.17,-58 184.03,-16.7 369.81,-17.9 549.48,-19 293.36,-1.9 552.07,-2.8 790.92,-2.8 191.85,0 370.07,0.5 544.88,1.7 150.31,1 271.21,11.2 380.49,32.1 185.44,35.4 367.38,81 583.5,138.6 121.69,32.5 247.27,44 365.45,53.1 5.67,0.4 11.75,0.6 18.03,0.6 25.22,0 51.78,-3.4 79.88,-7 12.7,-1.6 25.38,-3.3 38.02,-4.6 42.3,-4.4 45.12,-20 46.31,-26.7 0.16,-0.9 0.25,-1.6 0.29,-2.1 -4.92,-5.5 -22.05,-14.3 -32.52,-19.8 l -7.57,-3.9 c -44.01,-23.2 -70.98,-53.4 -80.17,-89.9 -8.96,-35.7 -0.22,-73.4 25.98,-112.2 29.52,-43.8 67.64,-79.4 107.36,-100.3 53.09,-27.9 116.27,-57.4 182.12,-63.8 170.03,-16.5 318.57,-24.7 454.12,-25.1 132.34,-0.3 264.58,-0.5 396.91,-0.5 267.44,0 1839.37,0.6 2102.34,1.2 212.61,0.4 425.21,0.9 637.8,1.1 127.18,0.1 261.17,11.3 379.67,92 27.1,18.4 65.3,49.6 94.1,93.9 20.1,30.9 39.2,68 28.5,109.4 -10.8,41.9 -46.6,65.9 -83.6,85.6 -4.5,2.4 -9.2,4.7 -13.8,6.9 -6.2,3 -12.7,6.1 -15.6,8.4 -4,3.2 -6.5,5.6 -8,7.3 1.1,2 2.9,4.8 6,8.5 15.4,18.6 35.8,26.7 75.5,29.9 32.2,2.6 65.3,3.9 98.3,3.9 204.3,0 402.9,-51.7 553.2,-96.7 260.6,-78.1 498.8,-118.9 728.3,-124.7 79.3,-2 158.9,-2.9 233.6,-3.6 60.8,-0.6 121.7,-1.3 182.5,-2 132.4,-1.6 269.2,-3.2 404,-3.2 21.5,0 42.9,0.1 64.4,0.1 331.3,1.4 660.8,5.7 969.9,10.1 57.4,0.8 112.9,6.4 164.6,16.7 74.7,14.8 149.9,31.5 222.7,47.6 51.7,11.4 105.3,23.3 157.9,34.3 62.1,13 116.2,19.4 165.6,19.4 50.3,0 96,-6.4 139.6,-19.6 184.6,-55.6 294.1,-187 334.7,-401.8 24.1,-127.1 -12.2,-236.8 -107.7,-326.1 -25.9,-24.1 -53.1,-36.4 -80.8,-36.4 -15.7,0 -32.3,3.9 -49.4,11.4 -28.9,12.8 -61.4,36.4 -56.1,106.5 1.9,24.4 4.3,49.5 6.6,73.8 4.2,44.1 8.6,89.7 10.2,135.5 5.2,149.5 -60.6,264.3 -185.1,323.1 -72.5,34.3 -144.5,51.6 -214.1,51.6 -92,0 -179.7,-30 -260.7,-89.3 -106.4,-77.8 -171.5,-188 -193.6,-327.5 -12.9,-81.7 -27,-189.1 -20.8,-296.1 13.7,-237.1 102.7,-436.8 264.3,-593.7 75.3,-73.2 170.3,-113.4 267.3,-113.4 84.7,0 167.4,29.8 239.2,86.2 10.2,7.9 19.8,16.1 29,24 16.4,13.9 31.8,27 47.5,36.8 11.8,7.3 22.9,11.2 32,11.2 4.6,0 18.7,0 31.6,-27.2 11.8,-24.8 19.3,-57.6 21.7,-95 2.7,-42.8 2.1,-85.7 1.4,-131.1 -0.3,-21.4 -0.7,-42.8 -0.6,-64.1 0.5,-280.9 1.1,-4383.6 1.6,-8351.3 0.5,-3457.5 -2,-7712.2 4.5,-7934.9 3.5,-122.7 -44.5,-203.8 -160.8,-271.2 -27.5,-16 -55.8,-30.5 -85.6,-45.8 -34.8,-17.9 -70.8,-36.4 -105.6,-57.4 -40.3,-24.3 -76.8,-55.3 -105.6,-89.5 -37.2,-44.3 -54.5,-98.6 -48.5,-152.9 6,-55.4 35.4,-105.9 82.7,-142.1 25.9,-19.8 58.2,-36.4 93.3,-47.9 28.1,-9.2 56.4,-16.9 83.8,-24.3 33.9,-9.2 65.9,-17.9 96.8,-29 46.1,-16.6 90.2,-33.6 124.1,-58.9 20.3,-15.1 45.1,-40.3 48.1,-73.9 2.4,-26.7 -9.5,-54.9 -34.4,-81.4 -29.3,-31.4 -67.4,-60 -107.2,-80.5 -60.2,-31 -128.5,-44.798 -221.5,-44.798 -23.3,0 -48.4,0.8 -79.1,2.598 -96.2,5.6 -153.8,46.3 -186.7,132 -18.4,47.7 -45.7,91.6 -67.5,124.6 -84.6,128.1 -202.1,194.6 -349,197.5 -30.9,0.6 -62.7,2.2 -93.4,3.6 -40.1,1.9 -81.6,3.9 -123,4 0,0 -3591.89,1.3 -3741.28,0.2 -77.53,-0.6 -156.73,-17.4 -223.02,-47.3 -180.09,-81.1 -265.53,-265.4 -234.4,-505.398 4.76,-36.902 27.95,-65.699 37.68,-76.398 29.54,-32.5 59.44,-39.301 79.31,-39.301 22.69,0 56.14,8.699 86.59,50 l 24.52,33.297 -24.21,33.504 c -7.54,10.496 -15.69,19.898 -22.89,28.199 -7.73,9 -19.43,22.5 -20.8,27.899 -20.13,80.198 -2.64,163.398 47.99,228.298 52,66.7 131.04,104.9 216.82,104.9 h 4.75 c 18.89,-0.3 37.77,-0.8 56.64,-1.4 29.48,-0.8 3408.1,-1.2 3711.2,0.8 h 2.2 c 77.4,0 123.3,-24.9 153.7,-83.1 22.5,-43.3 46.1,-86.7 68.8,-128.6 l 13.4,-24.6 c 71.5,-131.998 186.5,-202.9 341.9,-210.498 7.5,-0.3 14.9,-0.8 22.3,-1.199 19,-1.203 38.6,-2.301 58.7,-2.301 3.1,0 6.3,0 9.4,0.098 11,0.203 21.9,0.301 32.8,0.301 54.4,0 110.4,-2.399 164.5,-4.801 55.3,-2.398 112.5,-4.898 169.4,-4.898 99.4,0 180.9,7.8 256.6,24.398 96.1,21.203 218.2,58.703 309.3,161.9 56.2,63.7 79.7,140 66.2,214.9"
         style="fill:#c9c4bc;fill-opacity:1;fill-rule:nonzero;stroke:none"
         id="path18" /><path
         d="m 19820.5,18926.7 c -24.1,0 -34,1.5 -37.8,5.6 -5.5,6 -8.9,23.5 -14.2,50.1 l -0.6,3.1 c -3.3,16.9 0.1,34.4 4,54.6 3.9,20.3 8.2,42.8 5.8,67.9 17.1,1.1 30.2,2.2 42,3.3 20.3,1.8 37.7,3.4 67.7,3.9 116.3,1.7 232.5,3.2 348.8,4.6 118.3,1.5 236.5,2.9 354.8,4.7 33.1,0.5 72.1,2.2 110.1,10.7 20.8,4.6 52.9,27.2 54,50.5 1.1,23.7 -12.8,53.8 -32.2,70.3 -18.4,15.4 -41.3,23.5 -63.5,31.4 -4,1.4 -7.9,2.7 -11.8,4.2 -54,19.8 -109,39.5 -162.2,58.6 -118.3,42.4 -240.7,86.3 -359,134 -56.3,22.7 -113,60 -164,107.9 -162.5,152.5 -180.4,396.5 -42.8,580.1 82.4,110 194.8,191.7 343.4,249.9 116.1,45.5 238.9,69.9 375.6,74.5 61.3,2.1 125.7,3.2 191.2,3.2 288.3,0 581,-20.4 864,-40.1 63.9,-4.5 127.9,-8.9 191.9,-13.2 43.5,-2.9 89.8,-5.7 135.7,-5.7 0,0 205.5,0.4 307.1,0.5 377.4,0.6 767.6,1.3 1151.3,3.8 l 156,1 c 355.7,2.2 723.4,4.5 1085,15 256.9,7.5 503.7,27.6 799.7,53 l 63.9,5.5 c 237.3,20.6 482.6,41.8 724.4,41.8 43.1,0 85.6,-0.6 126.4,-2 221.8,-7.2 422,-64.7 594.9,-170.9 151.8,-93.2 235.5,-228.3 248.9,-401.6 10.5,-135.4 -46.9,-252 -166,-337 -97.4,-69.6 -208,-122.7 -312.9,-171.2 -48.4,-22.4 -101.2,-38.9 -152.2,-54.8 -34.4,-10.8 -69.9,-21.9 -104.3,-34.8 -38.5,-14.5 -78,-34.9 -124.1,-64.4 -17.4,-11.1 -34.7,-42.6 -30.1,-65.1 4.5,-21.9 28.5,-41.3 48.8,-50 14.9,-6.4 31.4,-7.2 47.1,-7.2 l 17.3,0.1 c 154.4,0 308.9,0.3 463.4,0.6 l 181,0.4 c 61.7,0.1 92.3,0.1 144.5,0.1 l 36.1,0.1 c -3.9,-38.2 1.9,-72.8 7.6,-106.3 5,-29.6 9.8,-57.7 6.9,-85.5 -5,-0.5 -9.9,-1 -14.7,-1.5 -17.7,-1.9 -34.3,-3.7 -50.4,-3.8 l -136.7,-0.9 c -150.1,-1.2 -305.3,-2.3 -457.9,-2.3 -46.1,0 -92.2,0.1 -138.3,0.3 -58,0.3 -121.9,6.6 -201.1,19.7 -75.8,12.6 -125.8,57 -144.4,128.3 -19.6,74.8 1.8,137.6 62,181.5 37.4,27.3 80.1,50 123.7,65.7 57.4,20.7 116.4,40 173.5,58.7 76.8,25.2 156.2,51.3 233,80.9 96,37.1 204.8,79.2 295.7,158.5 93.9,82 139,192.7 127.2,311.7 -12.8,127.8 -91.4,250.7 -200.4,313 -103.9,59.3 -220.6,95.7 -367.4,114.4 -101.4,13 -207.7,19.5 -316.1,19.5 -195.5,0 -408.5,-21.1 -651.1,-64.7 -33.3,-6 -66.5,-12 -99.8,-18.1 -234.3,-42.7 -476.7,-86.9 -719.1,-96.6 -51.9,-2 -103.8,-4.5 -155.7,-6.9 -112,-5.2 -227.7,-10.6 -341.4,-12.1 -192.6,-2.3 -388.4,-3.5 -577.8,-4.6 -297.5,-1.7 -605.1,-3.5 -907.7,-10.2 -82.9,-1.8 -160,-2.7 -235.7,-2.7 -383.2,0 -703.4,23.2 -1007.5,73.1 -273.6,45 -565,88.8 -853.5,88.8 -51.2,0 -102,-1.4 -151,-4.1 -222.7,-12.3 -395.9,-63.6 -545,-161.3 -120.3,-78.8 -191,-205.4 -189.2,-338.6 1.8,-131.7 71.6,-249.6 191.4,-323.6 59,-36.4 126.4,-59.5 191.6,-81.9 12.2,-4.2 24.3,-8.4 36.3,-12.6 74.1,-26.1 149.8,-51 223,-75.1 60.6,-19.9 123.2,-40.5 184.5,-61.6 53.8,-18.6 95.5,-36.6 131.1,-56.8 65.6,-37.3 95.6,-91.5 89.2,-161.2 -6.5,-70.7 -45.9,-120.1 -108.2,-135.6 -123.3,-30.8 -222.9,-46.9 -313.2,-50.9 -168.2,-7.5 -339.7,-8.7 -505.5,-9.9 -59.3,-0.4 -118.6,-0.8 -177.8,-1.5 -6.3,-0.1 -12,-0.2 -17.2,-0.2 z m -4.1,-168.7 c -13.6,0 -30,0.9 -36.5,7.6 -3.7,3.8 -5.3,10.8 -5,20.8 0.9,23.4 11.1,29 54.6,29.6 l 70,1 c 185.1,2.6 376.5,5.4 564.8,11.7 118.7,3.9 225.7,8.8 332.4,28.2 66.8,12.1 136.3,43.9 190.6,87.1 71.5,56.9 109,141.6 100.5,226.7 -8.6,85.2 -60.1,157.8 -141.3,199.2 -89.7,45.7 -186.5,80 -280.1,113.3 -25.2,8.9 -50.3,17.8 -75.3,26.9 -56.9,20.8 -115.3,40.2 -171.8,58.9 -49.9,16.5 -101.4,33.6 -151.6,51.5 -34.7,12.4 -71.1,29.9 -111.3,53.6 -80,46.9 -130.6,122 -138.8,206 -8.4,86.1 28.1,172.2 100.2,236.1 74.8,66.4 167.4,108 300,134.8 117,23.6 237.9,35.1 369.6,35.1 88.3,0 178.9,-5.1 277.1,-15.8 145.2,-15.6 292.6,-35.1 435.1,-54 193.8,-25.6 394.2,-52.1 592.2,-69.5 160.6,-14.1 319.8,-15.3 482.2,-15.3 l 100.6,0.1 c 41.6,0 91,-0.1 140.9,-0.6 59.2,-0.6 124,-0.9 198.2,-0.9 64.9,0 129.8,0.2 194.7,0.4 58,0.2 116,0.4 173.9,0.5 h 17 v 1.5 c 90.5,4.6 595.4,13.2 913.2,13.2 l 52,-0.1 c 427.8,0 883.2,46.2 1433.1,145.4 214.1,38.6 386.9,56.5 544,56.5 115.1,0 221.1,-9.4 323.9,-28.8 107.3,-20.2 201.2,-52 279.3,-94.5 94.2,-51.2 150.2,-135.1 153.6,-230.2 3.5,-95.4 -46.6,-183.5 -137.3,-241.8 -76,-48.7 -164.8,-82.2 -250.7,-114.5 -19.1,-7.3 -38.2,-14.4 -57.1,-21.8 -64.3,-24.9 -131,-47.3 -195.5,-68.9 -44.6,-14.9 -90.7,-30.4 -135.7,-46.6 -33.9,-12.2 -69.3,-29 -108.3,-51.4 -130.4,-75 -178.2,-163.5 -159.7,-296.1 15.7,-113.2 122.1,-219.5 242.1,-242.1 84.1,-15.8 171.5,-18.4 245.8,-18.9 56.2,-0.4 112.5,-0.5 168.7,-0.5 105.2,0 212.2,0.5 315.6,1 79.6,0.4 159.2,0.8 238.9,0.9 4.3,0 8.7,0.1 13.1,0.2 4.7,0 9.3,0.1 14,0.1 15.1,0 30.9,-0.6 44.9,-5.1 8,-2.7 20.2,-18.1 20.3,-24.2 -0.7,-4.8 -12.7,-18.1 -23.8,-22.9 -7.2,-3.1 -16.9,-3.5 -24.5,-3.5 -3.9,0 -7.9,0.1 -11.8,0.2 -4.3,0.1 -8.5,0.2 -12.6,0.2 h -2.3 c -64.7,-0.7 -129.4,-1.6 -194.1,-2.4 -163.6,-2.2 -332.7,-4.5 -498.9,-4.5 l -39.6,0.1 c -95,0.2 -185.7,7.1 -269.7,20.6 -161.7,25.8 -286.7,143.3 -304.1,285.6 -19.6,160 39,282.6 169.5,354.5 67.4,37.2 141,66.7 212.2,95.2 26.5,10.6 53.9,21.6 80.6,32.8 27,11.3 55,21.8 82.2,32 48.2,18 98,36.7 144.6,60.9 94.3,49.1 150.8,125.5 155.2,209.5 4.4,85.8 -45.5,169.6 -136.9,229.9 -120.1,79.2 -259.1,93.7 -391.1,101.8 -36.8,2.3 -75,3.4 -113.5,3.4 -224.7,0 -448.8,-38.6 -665.5,-75.9 l -49.2,-8.5 c -267.3,-45.8 -534.3,-71.8 -793.5,-77.4 l -42.6,-0.9 c -341.3,-7.4 -694.2,-15 -1041.2,-20.6 -12.5,-0.2 -25,-0.3 -37.5,-0.3 -43.4,0 -87.6,1.1 -130.4,2.1 -43,1.1 -87.4,2.2 -131.3,2.2 -10.9,0 -21.9,-0.1 -32.9,-0.2 -102.2,-1.4 -206,-4.1 -306.4,-6.6 -149.4,-3.7 -304,-7.6 -455.8,-7.6 -19.3,0 -38.6,0 -57.8,0.2 -288.8,1.9 -548.9,21.8 -795.4,60.6 -222,35 -422.1,59.7 -611.5,75.6 -40.3,3.3 -82.3,5 -128.5,5 -81.7,0 -162.3,-5.2 -244.5,-10.9 -96.3,-6.6 -185.7,-45.4 -265.8,-115.1 -61.1,-53.3 -95.1,-120.9 -95.6,-190.6 -0.5,-67.3 30.6,-132.6 87.7,-183.8 38.2,-34.3 88.6,-64.5 145.8,-87.3 64.8,-25.9 131.8,-49.2 196.5,-71.7 47.2,-16.4 96,-33.4 143.4,-51.2 74,-27.8 150.4,-62.3 207.8,-126.5 66.5,-74.5 96.3,-166.5 84,-259.3 -12.4,-93.6 -66,-175.5 -150.7,-230.7 -139.7,-90.9 -300.6,-103.3 -440.5,-107.8 -150,-4.8 -302.8,-6.6 -450.4,-8.2 -95.7,-1.1 -194.5,-2.2 -291.8,-4.2 -3,0 -6,-0.1 -8.9,-0.1 z m -257.7,-182.2 c -36.2,0 -46.6,2.8 -47.4,66.2 -1.2,100.6 -1.1,202.8 -1,301.8 l 0.1,40.2 c 0,20 0.3,38 3.8,54.9 9.4,45.6 36.6,72.6 74.5,74.2 1.8,0.1 3.6,0.1 5.4,0.1 42,0 65.5,-21.2 71.9,-64.7 11.4,-78 14.5,-158.9 17.4,-237.2 l 0.9,-23.2 c 0.2,-5.6 -5.8,-15.4 -11.6,-24.9 -1.1,-1.8 -2.3,-3.8 -3.5,-5.8 -16.9,12.4 -18.9,30.9 -20.7,59.1 -1.7,28.9 -3.9,64.8 -36.5,90.2 l -18.6,14.5 -7.9,-22.2 c -2.8,-7.8 -5.9,-15 -8.9,-21.9 -6.5,-15.2 -12.7,-29.5 -12.9,-45.1 -0.7,-51.8 1.9,-101.5 7.9,-147.6 2.9,-23 39.1,-35.3 50.1,-38.5 16.7,-4.9 35.6,-7.3 57.9,-7.3 l 5.2,0.1 c 84,1.3 168.1,2.5 252.2,3.7 240.8,3.4 489.8,6.8 734.6,14.3 176.4,5.5 317.4,51.1 430.8,139.7 64.9,50.7 131.5,107.5 169.4,195.5 92.6,214.8 -26.2,445.9 -189.3,536.9 -74.3,41.4 -149.8,73.5 -240.7,111.3 -47.9,19.9 -97.4,37.4 -145.3,54.4 -27.7,9.8 -56.3,20 -84.2,30.5 -20.4,7.6 -41,16.9 -60.8,25.9 -6.3,2.9 -12.6,5.7 -18.9,8.5 -66.9,29.9 -97.6,68.7 -96.5,122.4 1,51.3 32.6,90.9 99.4,124.4 87.6,44 187.6,65.4 305.9,65.4 9.1,0 18.3,-0.1 27.4,-0.4 205.8,-5.4 413.3,-31.1 614,-56 68.8,-8.6 139.9,-17.4 210,-25.3 238,-26.8 487.5,-40.4 741.6,-40.4 99.6,0 202.1,2.1 304.6,6.2 199.3,8 402.4,9.7 598.8,11.3 l 74.7,0.7 c 137,1.2 276.5,1.3 411.3,1.4 256.1,0.2 520.9,0.5 781.3,8.1 361.6,10.6 683.3,38.8 983.6,86 249.6,39.3 503.9,55.5 697.6,65.3 4.7,0.2 9.4,0.4 14.1,0.4 60,0 123.3,-18.8 184.5,-36.9 17.3,-5.1 34.5,-10.2 51.6,-14.9 32,-8.7 62.7,-34.4 83,-52.9 30.4,-27.9 45.7,-60.5 43.2,-91.9 -2.4,-30.5 -21,-58 -53.7,-79.5 -39.4,-25.9 -85,-45.4 -129,-64.2 -14.7,-6.3 -29.4,-12.5 -43.9,-19 -40.1,-18 -81.4,-35.4 -121.4,-52.3 -81.3,-34.2 -165.4,-69.6 -244.3,-112.2 -145.3,-78.5 -228.8,-192.4 -248.3,-338.7 -20.8,-156.5 34.9,-292.1 165.5,-402.8 112.6,-95.4 252.9,-142.8 429,-144.6 81,-0.9 164.3,-1.3 254.6,-1.3 216.1,0 435.9,2.5 648.4,4.9 l 123.4,1.4 c 103.5,1.2 126.1,25.3 126.9,135.7 0.1,7.9 1,16.4 2,25.3 3.5,33.3 8,74.7 -34.3,106.3 l -8.6,6.3 -9.4,-4.8 c -42.4,-21.9 -42.1,-58.8 -41.8,-88.6 0.2,-19.9 -0.2,-34.5 -7.1,-46.2 -4.5,3.7 -11.5,9.4 -13.3,12.4 l -0.5,33.5 c -1.4,80.8 -2.9,164.2 5.1,244.9 4.3,43.1 21.6,59.1 64,59.1 4,0 8.2,-0.1 12.6,-0.4 46.8,-3.2 70,-26.1 71,-70.1 2.6,-111 2.2,-220.3 1.8,-335.9 -0.1,-40.9 -0.3,-82.2 -0.3,-123.9 -1.4,-0.2 -2.8,-0.5 -4.2,-0.8 -13.3,-2.6 -27.1,-5.4 -40.4,-5.5 -71.8,-0.7 -143.6,-1.5 -215.4,-2.3 -291.3,-3.1 -592.4,-6.3 -888.5,-7 h -2.5 c -177.6,0 -332.4,41.2 -473.2,125.8 -140.7,84.6 -232.2,238.8 -238.8,402.6 -6.9,169.3 72.2,321.9 222.5,429.6 122.1,87.5 263.3,146.1 397.7,196.3 56.4,21.1 99.1,42.1 134.6,66.1 34.6,23.4 52,54 47.7,83.8 -4.2,28.3 -27.7,51.1 -64.6,62.6 -74.1,23.2 -141.5,35 -200.1,35 -12.1,0 -24,-0.5 -35.4,-1.5 -141,-12 -283.8,-29 -422,-45.5 -103.2,-12.3 -210,-25.1 -315.2,-35.6 -40.1,-4 -80.1,-8.2 -120.2,-12.3 -186.6,-19.4 -379.5,-39.4 -569.2,-44.1 -391.8,-9.5 -790.4,-13 -1175.9,-16.4 -151.7,-1.3 -303.3,-2.7 -455,-4.4 -79.2,-0.8 -159.9,-1.1 -237.9,-1.4 -162.3,-0.6 -330.2,-1.2 -495.2,-7.1 -50.2,-1.9 -102.1,-2.8 -154.4,-2.8 -333.4,0 -659.7,36.1 -1021,79.6 -143.6,17.3 -284.8,28.3 -420,32.6 -4.8,0.1 -9.6,0.2 -14.4,0.2 -60.7,0 -121.8,-11.8 -180.9,-23.3 l -20,-3.8 c -45.8,-8.8 -87.2,-43.7 -77.8,-93.4 6,-31.6 35.6,-68.7 66.1,-82.8 39.7,-18.3 81.3,-33.8 121.5,-48.7 43.8,-16.2 89.2,-33.1 131.4,-53.5 l 21.4,-10.3 c 93.5,-45.2 190.2,-91.8 273,-153 123.4,-91.2 189.3,-222.7 185.5,-370.4 -4.2,-165.4 -96.5,-331.7 -235.2,-423.7 -146.5,-97.2 -324.1,-144 -559,-147.3 -136.2,-1.9 -274.9,-2.3 -409,-2.7 -112.5,-0.4 -228.9,-0.8 -343.4,-2 -78.4,-0.9 -155.8,-6.6 -234.9,-13 -12.4,-1 -21.9,-1.4 -30.1,-1.4 z m 9895.5,-692.5 c -176.1,0 -355,58.3 -490.7,160 -172.1,129 -274.3,309.3 -312.4,551.4 -2.6,16.1 -5.3,32.2 -8.2,48.3 -0.7,3.8 -1.9,6.6 -4.4,12.2 -1.5,3.4 -3.6,8.2 -6.7,15.7 l -4.4,10.5 h -197.6 c -64.7,0 -129.3,-0.1 -193.8,-0.4 -76.4,-0.4 -146.5,-1 -216.4,-1.6 -76.1,-0.7 -151.9,-1.4 -235.1,-1.7 -4.8,0 -9.8,-0.2 -15,-0.4 -5.2,-0.2 -10.5,-0.5 -15.7,-0.5 -29.9,0 -34.8,7.6 -35,25.7 -0.1,9.3 1.6,15.8 5,19.2 5.2,5.2 17.7,5.9 26.7,5.9 5,0 10.2,-0.3 15.3,-0.5 5.5,-0.2 11.1,-0.4 16.4,-0.4 196,0.3 374.7,1.6 564,2.9 l 180.1,1.3 c 5.4,0 10.1,-0.2 14.9,-0.5 5.3,-0.2 10.6,-0.5 15.9,-0.5 v 0 c 9.5,0 21.8,0.7 33.6,5.7 15.4,6.6 26.5,18.8 37.3,30.5 4.1,4.5 8,8.8 12,12.6 l 13.2,12.4 -13.3,12.4 c -4.1,3.8 -8.2,8.4 -12.5,13.2 -10.9,12.2 -23.2,25.9 -40,31.1 -12.1,3.8 -25.3,5.5 -42.9,5.5 -7.2,0 -14.4,-0.3 -21.6,-0.6 -6.1,-0.2 -12.3,-0.4 -18.3,-0.5 -95.6,-0.6 -187.1,-1.4 -277.6,-2.1 -143.7,-1.2 -279.3,-2.3 -427.9,-3 h -2.3 c -60.2,0 -75,10.8 -78.5,15.4 -0.8,1.1 -2.8,3.8 -0.8,11.3 6.2,22.5 18,26.8 37.7,26.8 6.7,0 14,-0.6 21.1,-1.2 7.5,-0.6 15.1,-1.3 22.5,-1.3 l 1.1,0.1 c 172.6,1.4 330.1,1.7 497,2.1 74,0.2 149.1,0.4 226.7,0.6 0.1,0 0.2,0 0.3,0 5,0 9.1,0 13.2,-0.1 4.5,-0.1 8.9,-0.2 13.4,-0.2 14.4,0 31.1,0.8 46.6,6.9 19.8,7.6 43,33.9 43.4,56.1 0.3,22.2 -24.3,49.1 -44.7,55.5 -19.7,6.3 -41,7.1 -59.2,7.1 -5,0 -10,0 -15,-0.1 l -8.4,-0.1 c -116.9,-1 -227.7,-2.2 -338.2,-3.3 -123.4,-1.4 -246.5,-2.7 -377.1,-3.7 h -2.7 c -19.3,0 -38.9,1.6 -59.7,3.2 -5.4,0.5 -10.9,0.9 -16.5,1.3 l -0.1,180.5 c 137.7,4.9 282.6,7.1 466.9,7.1 84.9,0 171,-0.4 254.4,-0.9 84.1,-0.4 171,-0.9 257.4,-0.9 150.4,0 276.7,1.5 393.9,4.6 -9.9,-14.4 -19.6,-28.1 -29.1,-41.6 -31.2,-44.3 -58.1,-82.5 -81.1,-124.1 -139,-251.1 -146,-498 -20.8,-733.8 94.2,-177.4 249.8,-276.9 462.5,-295.7 8.3,-0.7 16.9,-1.1 25.5,-1.1 h 0.1 c 156.7,0 347,116.8 381.1,305.5 21.7,119.6 -14.2,222.4 -109.8,314.4 -19.1,18.3 -40.1,34.8 -60.4,50.6 -12.7,10 -25.9,20.3 -38.2,30.9 -64.5,54.9 -84.2,107.4 -64,170 23.3,72.1 91.5,121.3 169.7,122.6 2.7,0 5.4,0.1 8.1,0.1 148.2,0 263.2,-65.8 341.8,-195.5 130.3,-215 101.4,-484.8 -73.7,-687.3 -136.9,-158.4 -331.8,-245.6 -549,-245.6 z M 17311.6,17780 c -278,0.1 -518.4,184.3 -598.1,458.6 -43.2,148.4 -41,307.4 6.2,447.8 50.7,150.7 150.2,275.7 287.8,361.4 116.5,72.6 252.5,116.8 415.8,135.2 48.1,5.3 97.9,8.1 148,8.1 153.3,0 314.2,-23.9 521.7,-77.4 42.8,-11.1 84,-16.4 125.9,-16.4 13.9,0 28.3,0.6 42.6,1.7 41.8,3.5 83.5,4.1 133.2,4.1 h 53.7 c 18.8,0 37.5,0.1 56.2,0.4 118.7,2.3 232,4.8 344.3,7.2 155.4,3.3 316,6.8 483.8,9.7 l 2.8,0.1 c 16.6,0 34,-2.6 52.4,-5.3 5.4,-0.8 10.8,-1.6 16.4,-2.3 l 0.1,-183.5 c -221.2,-12.5 -446.9,-18.1 -728.7,-18.1 -74.6,0 -156.1,0.4 -256.5,1.2 l -19.3,0.1 2.3,-19.2 c 7.6,-63 42.8,-95 104.6,-95 h 1.4 c 200.9,1.4 405.1,4.3 602.6,7.1 l 71.5,1 c 32.3,0.4 57.8,1.4 82.5,2.3 28.3,1 55.1,2 91,2.2 l 3.6,0.1 c 43.1,0 51.3,-10 51.8,-29.7 0.7,-24.5 -12.2,-28.8 -54,-29.9 -51.3,-1.4 -100,-2.8 -147.7,-4.2 -121.5,-3.5 -236.2,-6.9 -366.9,-9.4 -24.7,-0.5 -51.6,-0.8 -84.8,-0.8 -18.6,0 -37.2,0.1 -55.9,0.2 -18.7,0 -37.3,0.1 -56,0.1 -19,0 -38.1,-0.1 -57.1,-0.3 -11.2,-0.1 -21.2,-4.3 -30.9,-8.4 -4,-1.7 -8.2,-3.5 -12.7,-5.1 l -11.5,-3.9 -0.1,-12 c -0.1,-27 6.4,-46.8 20.2,-60.6 18.8,-19 46.9,-21.5 69.3,-21.5 h 3.7 c 45.4,0.6 90.8,0.9 136.2,1.1 67.5,0.4 137.3,0.8 205.9,2.3 69,1.5 130.4,3.9 189.7,6.2 52.9,2 107.6,4.1 168.5,5.7 3.7,0.1 7.3,0.1 11,0.1 24.2,0 43.9,-2.4 60.2,-7.3 4.1,-1.9 11.9,-14.4 11.8,-19.2 0,-3.3 -7,-14.1 -18.1,-21.6 -3.8,-2.6 -14.3,-2.8 -22,-2.9 -2.4,-0.1 -4.7,-0.1 -7.1,-0.2 -68,-2.5 -131.7,-5.1 -194.2,-7.6 -106.1,-4.2 -206.4,-8.2 -320.2,-11.8 -36.2,-1.2 -73.1,-1.4 -108.7,-1.7 -47.7,-0.3 -97,-0.6 -145.6,-3.1 -128.2,-6.5 -250.1,-23.4 -333,-149.6 -0.5,1 -0.9,2 -1.4,3 -5.5,12.2 -8.6,18.9 -10.5,25.2 -76.1,259.4 -247.4,445 -508.9,551.6 -100,40.8 -199.5,61.5 -295.6,61.5 -201.1,0 -378.9,-90.5 -514.2,-261.6 -119,-150.6 -149.7,-306.8 -91.4,-464.4 54.9,-148.1 169.8,-229.6 323.7,-229.6 8.2,0 16.6,0.2 25,0.7 68.7,3.9 127.1,33.3 189.2,95.5 17.3,17.3 33.6,35.8 49.3,53.6 20.2,22.9 41.1,46.6 63.5,67.1 43.7,39.8 82.4,58.4 121.8,58.4 18.1,0 36.9,-4 55.9,-11.9 74.1,-30.6 113.9,-84.1 121.7,-163.8 7.1,-73.2 -10.1,-141.4 -51.2,-202.6 -89.9,-133.7 -213.6,-204.7 -378.1,-216.8 -16.2,-1.2 -32.5,-1.9 -48.4,-1.9 z m 12652.7,-298.5 c -10.3,-11.1 -19.4,-19.8 -27.5,-27.4 -15.9,-15.1 -27.4,-26.1 -31.5,-41.6 -6.6,-25.1 -6,-51.2 -5.5,-76.5 0.1,-5.1 0.2,-10.2 0.3,-15.3 3.2,-380.5 20.2,-13979.3 20.3,-14110.6 0.1,-91.9 -2.1,-185.5 -4.2,-275.9 -1.1,-47.9 -2.3,-95.7 -3.1,-143.5 -0.1,-5.3 -0.4,-10.8 -0.7,-16.2 -1.1,-19.5 -2.3,-39.7 5.2,-58.2 6.6,-16.2 21.4,-27 34.6,-36.5 5.1,-3.7 10,-7.2 14.1,-10.8 l 13.3,-11.7 11.1,13.7 c 3.2,4 6.8,7.8 10.3,11.6 9.6,10.5 19.6,21.2 25.1,35.4 5.3,13.3 4.1,27.5 3,40.1 -0.4,5.1 -0.8,10 -0.8,14.4 0.7,125.3 1.4,250.6 2.2,375.9 1.8,296.5 3.6,603.1 4.6,904.7 0.3,104.4 -17.2,12966.3 -24.2,13313.9 -0.3,18.8 -4.1,37.3 -8.8,60.8 -2.6,12.9 -5.6,27.5 -8.6,45 l -5.8,34.1 z m 198.4,96.2 c -77.3,-12 -102.9,-27.6 -102.7,-96.5 0.5,-175.6 2.5,-357.9 6,-557.4 5.2,-301.5 22.2,-13143.2 22.1,-13257.9 -0.2,-186.2 -0.6,-372.3 -0.9,-558.5 -0.2,-103.7 -0.4,-207.4 -0.6,-311.2 0,-6.2 -0.4,-12.6 -0.8,-19 -1.1,-17.9 -2.2,-36.5 3.8,-54.3 5.4,-16.4 18.2,-28.9 29.5,-40.1 4.5,-4.4 8.8,-8.7 12.4,-12.9 l 12.4,-14.4 12.9,13.8 c 4,4.2 8.2,8.2 12.5,12.2 11.4,10.7 23.1,21.8 30.6,36.5 6.8,13.5 5.6,28.9 4.5,42.4 -0.4,4.6 -0.7,9.1 -0.7,13.5 1.6,483.2 6.1,1776.2 7.2,1917.5 l 0.3,0.1 -0.1,13.3 c -3.6,516.2 -8.9,3509.1 -14.1,6403.4 -5.4,3052.8 -11.1,6209.4 -14.6,6453 l -0.3,19.6 z M 29705.1,1165.5 c -137.6,0 -274.8,43.1 -358.1,112.5 -234.3,195.1 -327.3,423.3 -284.3,697.7 50.5,322.3 229.5,537.8 531.8,640.5 50.8,17.3 103.9,28.6 160.2,40.7 26.9,5.7 54.7,11.7 83.3,18.5 l 9.8,2.3 2.7,9.8 c 0.5,1.8 1.4,4.1 2.4,6.9 3.8,10 9.5,25.3 9.5,41.5 -0.1,140.8 -16.6,14397.9 -24.7,14626.8 v 2 c -2.2,61.9 -4.5,125.9 -21.2,186 -13.6,48.8 -43.8,92.1 -73.1,134 l -3.7,5.4 c -11,15.7 -27.4,25.7 -48.1,38.4 -1.7,1 -3.4,2 -5.1,3.1 7.2,2.3 13.9,4.5 20.3,6.5 28.6,9.2 49.3,15.8 70.2,23.9 328.4,127.8 556.7,462.7 555.2,814.4 -1,249 -196.7,520.2 -427.3,592.4 -53.1,16.6 -104.9,25 -153.9,25 -109.8,0 -206.8,-41.5 -288.3,-123.3 -123,-123.5 -130.2,-295.5 -17.9,-428 31,-36.6 66.7,-69.5 101.3,-101.4 10.8,-10 21.6,-20 32.3,-30 65,-61.5 80.7,-127.4 47.8,-201.6 -29.9,-67.4 -87.3,-100.3 -175.5,-100.6 h -1.3 c -109.6,0 -205.2,45.3 -276.6,131 -127.1,152.4 -156.8,329.3 -88.3,525.9 94.6,271.3 336,439.9 630.2,439.9 27.7,0 55.9,-1.6 83.8,-4.7 364,-39.8 606.7,-293.3 649.4,-677.9 26.7,-240.6 10.5,-457 -49.4,-661.4 -32.9,-112.3 -31.3,-227.8 -29.7,-339.5 l 0.2,-14 c 3.9,-279.6 28.9,-14265.9 29.3,-15395 -13,7.3 -23.4,13.1 -32.4,20.2 -180.6,140.8 -348.5,206.4 -528.4,206.4 -3.2,0 -6.4,-0.1 -9.6,-0.1 -222.7,-2.9 -399.5,-85.7 -525.4,-246 -69.3,-88.1 -105.4,-195.8 -107.2,-319.9 -2.9,-194.9 141.2,-370.3 328.1,-399.2 14.2,-2.2 28.5,-3.3 42.5,-3.3 83.5,0 162.2,37.9 234.1,112.8 22.5,23.4 43.4,48.6 63.6,72.9 8.8,10.5 17.5,21 26.4,31.4 44.3,51.9 83.5,75 127.2,75 16,0 32.8,-3.2 50.2,-9.7 76.4,-28.5 124.8,-105.7 120.4,-192.1 -5.5,-110.6 -53,-203.1 -145.2,-283 -84.2,-72.9 -204.1,-113.1 -337.5,-113.1 z M 18082.3,903.102 c 4.7,12.699 8,22 13,27.8 154,182.798 219.9,394.398 195.8,628.898 -26.5,257.8 -229.8,531.8 -554.3,531.8 -21.1,0 -42.7,-1.2 -64.2,-3.5 -144.8,-15.7 -251.5,-97.1 -308.7,-235.4 -50.6,-122.2 -22.4,-239 86.2,-357.1 21,-22.9 45.2,-42.8 68.6,-62 16.6,-13.6 33.6,-27.6 49.1,-42.3 62.4,-59.5 78.5,-108.1 54,-162.6 -31.8,-70.5 -85.2,-109.1 -158.9,-114.6 -10.6,-0.8 -21.1,-1.2 -31.4,-1.2 -118.2,0 -219.1,53.4 -300,158.7 -161,209.7 -142.9,507.8 44.1,724.7 133.8,155.4 325.1,240.9 538.7,240.9 187,0 374.5,-65.9 514.6,-180.9 161.6,-132.6 259.5,-308.4 291.2,-522.6 0.8,-5.6 1.6,-11.2 2.4,-16.8 1.9,-13.7 3.9,-27.8 6.5,-41.7 1.4,-7 4.7,-12.7 7.7,-17.7 1.1,-1.9 2.3,-3.9 3.4,-6.2 l 2.7,-5.3 5.5,-2.4 c 1.6,-0.8 3.4,-1.9 5.3,-3 6.5,-3.9 15.5,-9.2 26.2,-9.2 85.1,0.5 170,1.3 254.9,2.2 127.5,1.2 259.3,2.5 388.8,2.6 h 3.4 c 76.3,0 154,-1.4 229.1,-2.8 75.2,-1.3 153,-2.7 229.6,-2.7 8.5,0 17,0 25.5,0 162.1,0.7 326.9,2.5 486.3,4.2 151.2,1.7 307.7,3.4 461.5,4.1 392.3,1.9 791.2,2.7 1176.9,3.5 l 249.6,0.5 c 26,0 52,0 78,0 109.8,0 205.7,-0.5 293.1,-1.7 62.8,-0.9 62.8,-0.9 63.7,-61.1 1.1,-69.1 1.5,-139.5 1.9,-207.6 0.3,-57.8 0.6,-115.7 1.3,-173.596 0.7,-49.805 -13.2,-73.402 -47.7,-81.301 -5.5,-1.301 -10.9,-2 -15.9,-2 -26.4,0 -46.5,18.797 -59.7,55.899 -41.5,115.798 -45,207.198 -10.9,293.998 20.2,-6.7 21.5,-19.6 19.6,-44.6 -2.3,-30.6 0.9,-56.2 10.3,-80.4 l 8.9,-23 18.3,16.4 c 60.5,54.1 44,121.6 30.7,175.8 l -1.2,5 c -16.6,67.8 -85.7,68.1 -118.9,68.2 -85.4,0.3 -170.8,0.9 -256.3,1.5 -118.4,0.8 -240.8,1.7 -361.3,1.7 h -8.2 c -129.9,-0.1 -261.9,-0.8 -389.6,-1.5 -131.5,-0.7 -267.5,-1.5 -401.3,-1.5 h -20.5 c -285,0.2 -574.9,0.9 -855.1,1.5 -249.2,0.6 -498.4,1.1 -747.5,1.4 h -41.1 c -149.7,0 -301.9,-0.8 -449.1,-1.5 -64.8,-0.4 -129.5,-0.7 -194.3,-1 -4.3,0 -8.4,0.3 -12.7,0.6 -5,0.4 -10.1,0.7 -15,0.7 -7.9,0 -19.6,-0.8 -29.5,-7.4 -17.6,-11.8 -37.4,-34.5 -42.2,-58.6 -3.4,-17.5 13.9,-31.5 47,-51.2 4.8,-2.9 10.5,-4.4 17.4,-4.4 4.2,0 8.4,0.6 12.1,1 2.7,0.4 5.4,0.8 7.9,0.8 141.1,-0.4 282.2,-1 423.2,-1.6 248.1,-1 504.7,-2 757.1,-2 56.3,0 112.5,0 168.7,0.1 509.5,1.1 1027.4,3.4 1528.3,5.6 227.1,1 454.2,2 681.3,3 0,0 23.8,0.1 30.7,0.1 12.8,0 29.7,-0.1 46.5,-1 16.4,-0.9 29.3,-5.1 33.8,-11.2 0.9,-1.1 3.1,-4 1.3,-11.6 -2,-8.6 -25.8,-21.5 -38.6,-28.4 l -7.2,-4 c 0,0 -1.1,-0.5 -4.6,-0.5 -3.1,0 -6.9,0.4 -10.8,0.8 -4.7,0.5 -9.6,1.1 -14.6,1.1 -103.5,-0.7 -206.6,-1.4 -309.7,-2.1 -219,-1.5 -445.4,-3.1 -668.1,-3.5 -423.2,-0.9 -853.4,-1.2 -1269.6,-1.5 -205.3,-0.1 -410.6,-0.2 -615.9,-0.4 l -109.9,-0.1 c -194.7,-0.2 -396.1,-0.3 -594.1,-1.8 -6.7,0 -13.6,0.6 -21,1.2 -8.4,0.7 -17.2,1.4 -25.9,1.4 -52.3,0 -64,-30.9 -64.6,-56.8 -0.5,-20.3 4.8,-36.3 15.7,-47.5 15.9,-16.3 39.8,-18.2 56.3,-18.2 8.3,0 16.5,0.5 24.3,1 6.7,0.4 13.1,0.9 19,0.9 113.9,-0.2 227.7,-0.2 341.5,-0.2 335.4,0 676.5,0.4 1006.4,0.9 143.9,0.2 287.8,0.4 431.7,0.5 402.7,0.4 805.4,0.8 1208.1,1.1 l 639.7,0.5 37,-167.498 c -0.2,-0.402 -0.5,-0.8 -0.7,-1.199 -0.8,-1.601 -1.3,-2.703 -1.9,-3.5 -0.8,-1 -1.4,-1.5 -1.6,-1.601 l -3.3,-1.5 c -2.8,-1.301 -6.8,-3.2 -8.4,-3.2 -20,-1.101 -41.4,-1.601 -67.6,-1.601 -1306.9,-3.598 -2613.8,-7.199 -3931.2,-10.801 l -217.9,-0.598 c 0.4,1.301 0.9,2.5 1.3,3.7 z m 11522.3,-39.801 c -170.1,0 -339,22.301 -502,66.402 -62.7,16.996 -132.7,26 -202.4,26 l -3.9,-0.101 c -466.5,-2.2 -940.8,-6.403 -1399.5,-10.399 l -321,-2.801 c -83.3,-0.703 -166.6,-1.699 -250,-2.601 -129.4,-1.5 -263.3,-3 -394.9,-3.598 -524.5,-2.301 -1057.8,-3.801 -1573.6,-5.101 h -1 c -18,0 -36.4,1.398 -57.5,3 -5.2,0.398 -10.5,0.8 -16,1.199 l 33.1,168.599 3850.2,30.6 -2,18.7 c -7,66.2 -42.9,99.3 -109.8,101.2 -38.8,1.1 -79.7,1.6 -121.4,1.6 -21.6,0 -43.2,-0.1 -64.8,-0.4 -75.6,-1 -151.2,-2.3 -226.8,-3.6 -124.1,-2.1 -252.3,-4.3 -378.4,-4.9 -182.1,-0.7 -362.4,-0.8 -530.1,-0.8 h -279.7 c -101.6,0 -203.1,0 -304.6,-0.2 l -186.7,-0.3 c -272.1,-0.3 -553.4,-0.7 -830.2,-3.4 -193.8,-1.8 -390.8,-6.6 -581.4,-11.3 -57,-1.3 -114.1,-2.7 -171.1,-4.1 -4.5,-0.1 -9,-0.1 -13.5,-0.1 -34.7,0 -58.7,3.6 -63.4,48.7 3.2,0.6 6.4,1.2 9.6,1.7 17.1,3.1 34.8,6.3 51.6,6.4 200.1,1.8 403.5,2.7 600.3,3.5 l 74.2,0.3 c 191.2,0.9 382.4,1.6 573.6,2.3 446.4,1.7 908,3.4 1362,6.6 143.3,1 288.9,4.9 429.8,8.6 92.9,2.5 188.9,5.1 283.4,6.8 16.4,0.3 32.8,0.4 49.2,0.4 35.8,0 72.2,-0.6 107.5,-1.2 34.9,-0.5 71.1,-1.1 106.8,-1.1 16.2,0 31.9,2.1 47.1,4.2 6.5,0.8 12.9,1.7 19.1,2.4 l 11.5,1.2 3.1,11.2 c 7.1,25.5 5.4,46.4 -5.1,62.3 -10.8,16.3 -29.4,25.9 -56.9,29.6 -20.9,2.8 -42.1,3.1 -60.1,3.1 -5.7,0 -30,-0.1 -30,-0.1 -211.6,-0.7 -423.2,-1.2 -634.8,-1.8 -570.6,-1.5 -1160.5,-3 -1740.8,-6.2 -299.4,-1.7 -603.8,-6.1 -898.1,-10.5 -114.4,-1.7 -228.9,-3.4 -343.3,-4.9 -3.9,0 -7.9,0 -11.9,-0.1 -23.6,0 -48,-0.1 -70.7,-8.3 -20.8,-7.5 -55.3,-29.3 -59.5,-55.8 -10.4,-66.7 -18,-137.7 12.2,-208.6 l 7.1,-16.8 16.3,8.4 c 49.8,25.7 46.5,66.4 43.8,99.1 -1.7,21.1 -2.5,36.4 4.2,49.2 0.3,-0.2 0.6,-0.4 0.9,-0.6 5.2,-3.4 13.9,-9.1 15.4,-11.9 19.7,-100.6 -9.4,-200.6 -38.2,-286.5 -4.7,-14.098 -32.9,-34.199 -47.8,-34.199 -5.4,0 -21.1,4 -52,40.601 -6.3,7.399 -9.9,23.7 -10.1,44.798 -0.8,108.5 -0.8,214.7 -0.7,327.1 l 0.1,92.4 c 2.4,0.8 4.7,1.7 6.9,2.5 9.9,3.5 18.4,6.5 25.3,6.5 70.5,0.3 141,0.4 211.4,0.4 l 159.4,-0.1 c 95.9,0 199,0.1 303,0.9 199.2,1.4 401.8,3.7 597.6,5.8 129.8,1.5 259.6,2.9 389.5,4.1 107.8,1.1 215.7,1.8 323.6,2.5 110.5,0.7 220.9,1.4 331.4,2.5 l 92.1,0.9 c 408.6,3.9 831.2,7.9 1246.8,13.1 110.3,1.4 219.7,7.5 312.3,13.2 83,5.1 155.7,41.3 216.2,107.5 6.2,6.9 14.1,13.2 21.6,19.4 0.5,0.3 0.9,0.7 1.4,1.1 0.7,-0.4 1.4,-0.8 2,-1.2 109,-363 360.3,-575.6 747,-631.898 25.9,-3.699 52.5,-5.601 79,-5.601 275.7,0 541.1,199.799 617.3,464.899 59.2,206 -58.9,430.2 -257.8,489.6 -29.3,8.8 -58.3,13.2 -86.2,13.2 -62.1,0 -121.6,-21.8 -176.8,-64.9 -26.6,-20.7 -49.7,-45.5 -72.1,-69.5 -8.8,-9.5 -17.6,-18.9 -26.6,-28.1 -8.2,-8.3 -16.1,-17 -24,-25.6 -12.1,-13.3 -23.6,-25.8 -36.1,-37.4 -36.1,-33.3 -75.5,-50.3 -117.1,-50.3 -20.6,0 -42.3,4.2 -64.3,12.5 -81.9,30.7 -104.5,98.5 -109,149.9 -12.3,138.2 42.6,251.4 163.1,336.2 87.6,61.7 185.4,93 290.7,93 49.3,0 100.8,-7 153.1,-20.6 319.4,-83.5 523.7,-392.3 485.7,-734.4 -18,-161.9 -97.8,-315.5 -224.7,-432.5 -127.3,-117.398 -293.9,-190.398 -469.1,-205.698 -60.1,-5.2 -120.2,-7.801 -178.9,-7.801 z M 17172,17375.4 c -2.1,0 -4.3,-0.1 -6.4,-0.1 l -16.6,-0.5 v -16.5 c 0.5,-672.6 18.2,-14034.6 25.8,-14675.7 l 0.2,-16.9 16.9,0.1 c 72.6,0.5 91,8.7 91.1,83 0.2,109.6 -0.8,215.4 -2,342.4 -1.7,183.3 -11.6,4918.3 -19.6,8722.9 -5.8,2727.4 -10.7,5082.8 -11.4,5200 -0.4,62.7 1.3,126.6 2.9,188.4 0.7,28 1.4,56 2,83.9 0.4,23.1 0.9,49.3 -17.6,68.2 -13.7,14 -35,20.8 -65.3,20.8 z m -128.8,-4.2 c -72.3,-9.5 -70.9,-59.2 -70,-88.9 0.1,-3.9 0.2,-7.7 0.2,-11.4 -0.3,-89 21.2,-14024 28.7,-14729 l 0.2,-23.7 22.4,7.8 c 78.4,27.3 88.7,76.1 88.4,120.2 -0.5,81.5 -1,163 -1.8,244.5 -2.5,234 -9.5,3835.8 -16.4,7319 -7,3563.6 -13.6,6929.5 -15.8,7075.1 -0.3,18.4 -5.7,35.7 -11,52.5 -2.3,7.3 -4.5,14.2 -6.2,21.2 l -3.7,14.7 z M 17455.6,823.402 c -311,0 -575.6,185.598 -674.1,472.898 -82.5,240.7 -90.7,489.4 -25.1,760.5 39.3,162.6 55.4,333.9 52,555.2 -10.1,677.9 -30.7,14209.8 -31.7,15225.1 9.5,-6.9 16.7,-12.3 23.2,-18.1 146.9,-132.1 342.1,-207.9 535.5,-207.9 168.6,0 325.2,56.3 452.9,162.9 146.9,122.6 220,366.7 159.4,533 -27.1,74.6 -73.6,137 -138.1,185.5 -64.6,48.6 -132.2,73.2 -200.8,73.2 -80.9,0 -159.6,-35.5 -227.7,-102.5 -24.2,-23.9 -45.9,-50.5 -66.9,-76.2 -11.7,-14.3 -23.7,-29.1 -36,-43.1 -41.1,-47 -87.9,-72.9 -131.6,-72.9 -16.1,0 -31.9,3.5 -46.9,10.3 -77,34.8 -117.2,90.5 -119.5,165.4 -4,124.8 43.4,230.3 140.8,313.5 92.8,79.3 215.1,122.9 344.4,122.9 133.9,0 266.9,-46.2 374.4,-130.2 357.2,-278.8 331.2,-742.8 125.5,-1037.7 -122.6,-175.7 -303.1,-283.6 -552.1,-329.7 l -9,-1.7 c -85.4,-15.7 -92.4,-23.9 -92.5,-109.8 -0.2,-101.5 26,-14090.4 31.4,-14554.3 1.2,-104.8 19.1,-235.6 142.2,-335.4 l -13.1,-4.5 c -24,-8.4 -43,-15.1 -62,-21.5 -377.4,-127.6 -624.2,-552.1 -539.1,-927.1 53.5,-235.8 202.9,-399.7 432.1,-474.098 43.6,-14.2 86.9,-21.399 128.7,-21.399 102.2,0.098 197.5,42 283.5,124.797 58.6,56.5 93.1,141.5 92.4,227.6 -0.5,58.3 -17.5,143.3 -96,216.4 -13.7,12.8 -27.9,25.4 -41.7,37.6 -24.5,21.6 -49.8,44.1 -72.5,67.8 -65.2,68.5 -80.6,126.2 -51.3,193.1 31.2,71.3 89,104.7 181.9,104.9 h 1.1 c 137.4,0 247.1,-67.3 325.9,-200.1 67.6,-113.8 88.6,-250.5 59.3,-384.9 -28.3,-129.6 -100.5,-248.7 -203.1,-335.197 -125.8,-106.004 -287.7,-164.301 -455.8,-164.301 z m 6132.1,579.198 c -15.7,-14.4 -29.7,-28.3 -42.1,-40.6 -25.7,-25.4 -46,-45.6 -69.5,-60.3 -29,-18.1 -61.5,-30.3 -96,-43.3 -11.7,-4.4 -23.4,-8.8 -35,-13.4 -47.8,-19.2 -112.1,-53.5 -117.9,-129.3 -5.5,-70.3 46,-113 97.1,-145.497 5.5,-3.504 11.7,-7.402 18.5,-10.801 84.1,-41.3 170.2,-62.3 256.1,-62.3 82.2,0 165.8,19.199 248.4,57.097 85,39.004 124.6,92.301 120.9,162.701 -4.8,92.6 -91.5,119.7 -138.1,134.3 l -10.4,3.3 c -82.3,25.6 -160,49.7 -205.2,143 l -10,20.7 z m 14.8,-704.299 c -54.3,0 -110.5,9 -166.9,26.5 -43.7,13.703 -87,33.301 -128.8,52.301 l -22.6,10.199 c -125.6,56.402 -249.7,107.601 -387.7,114.902 -10.4,0.5 -21.3,3.5 -36.3,7.598 -4.8,1.199 -9.9,2.601 -15.5,4.101 l 21.9,172.298 c 17.1,7.1 35.3,10.5 56.6,10.5 22.2,0 44.4,-3.6 67.8,-7.4 23.7,-3.8 48.2,-7.8 72.9,-7.8 26.1,0 49.1,4.5 70.5,13.6 l 16.2,7 -7.5,16 c -31.6,66.3 -83.7,81.5 -135.4,88.1 -23.1,2.9 -46.4,3.1 -69,3.3 -10.1,0 -20.2,0.1 -30.2,0.4 -48.3,1.6 -52.3,19 -52.3,35.2 0.1,19.3 10.5,23.3 46.5,26.9 l 2.5,0.2 c 18.5,1.9 37,3.4 55.5,5 42.7,3.6 86.9,7.4 130.1,14.7 69.8,11.7 138,28.8 201.2,45.4 28,7.4 53.6,22.3 74.9,35.9 60.9,38.8 54.9,82.4 39.1,112.2 -17.6,33.3 -46.5,51.6 -81.6,51.6 -9.2,0 -18.8,-1.3 -28.6,-3.8 -18.6,-4.8 -35.8,-13.1 -52.5,-21.1 -4.4,-2.2 -8.9,-4.3 -13.3,-6.4 -138.9,-64.5 -265.4,-117.9 -407.1,-117.9 -23.6,0 -47.3,1.6 -70.5,4.6 -4.6,0.6 -9.2,0.9 -13.7,0.9 -39.6,0 -67.7,-23.2 -71.5,-59.3 -0.6,-6.2 -1.4,-12.5 -2.1,-18.8 -6,-51 -12.9,-108.8 23.3,-162.7 l 7.9,-11.8 13.1,5.8 c 40.2,17.7 41.6,50.7 42.8,77.2 0.8,17.8 1.8,30.8 9,41.4 0.5,-0.4 1,-0.8 1.4,-1.3 5.3,-4.9 14.2,-13 15.3,-16.5 -2.9,-108.2 -8,-197.4 -16.3,-279.8 -4.6,-45.996 -42.7,-55.801 -73.8,-55.898 -29,0 -45.9,15.601 -58.4,53.898 -0.6,2 -1.3,4 -2.1,6.004 -2.2,6.398 -4.3,12.398 -4.3,16.996 -0.4,124.1 -0.4,248.2 -0.3,374.6 v 73.5 c 1.8,0.5 3.6,1.1 5.3,1.7 9.5,3 17.7,5.6 24.6,5.6 8.3,-0.3 15.6,-0.4 22.9,-0.4 0,0 0.1,0 0.2,0 125,0 247.2,38 384.5,119.7 6.9,4.2 14.1,8 21.3,11.8 13.1,6.9 26.7,14.1 39.3,23.4 51.7,38.3 103,56.9 157,56.9 43.3,0 87.9,-11.9 136.3,-36.3 53.4,-27 108.8,-40.7 164.4,-40.7 54.3,0 108.8,13.1 161.9,38.7 14.9,7.3 30.6,13 47.2,19 8.1,2.9 16.3,5.8 24.3,9 29.6,11.5 58.9,17.3 87,17.3 38.6,0 76.9,-11 113.8,-32.9 39.3,-23.2 91.3,-53.5 145.3,-82.2 117.2,-62.2 218.8,-91.1 319.8,-91.1 8.1,0 16.4,0.2 24.6,0.5 9.1,0.5 17.2,0.7 24.5,0.7 42.9,0 46.4,0 47.5,-71.8 l 0.3,-18.1 c 1.6,-106.1 3.2,-215.9 4.3,-323.8 0.1,-16.9 -0.3,-36.6 -4.6,-53.998 -9.6,-39.5 -30.8,-61.301 -62.7,-64.899 -2.8,-0.301 -5.5,-0.504 -8,-0.504 -18,0.102 -40.6,6.504 -55.6,56.504 -29,96.397 -25.1,195.797 -15.8,297.497 18,-14.1 19.3,-34.2 19.6,-63.9 0.3,-33.2 0.7,-74.4 48.8,-94.9 l 14.4,-6.1 7.3,13.9 c 2.4,4.6 5.4,9.2 8.3,13.7 7.3,11.3 14.9,22.9 14.7,36.8 -0.3,24 -2.3,48 -4.2,71.3 -1.8,21.4 -3.7,43.5 -4.1,65 -1.1,55.8 -31.9,84.8 -91.5,86.2 l -28.4,0.7 c -26.2,0.6 -53.3,1.3 -80.1,1.3 h -13.9 c -115.2,0 -225,26.6 -326.3,79 -35,18.2 -76,38.6 -119,51.8 -11.4,3.5 -22.9,5.3 -34.2,5.3 -40.8,0 -74.1,-22.4 -84.9,-57.2 -9.5,-30.6 -8.5,-74.3 50.3,-108.3 23.8,-13.8 46.7,-22.9 68.3,-27.1 118.6,-23 216.4,-40.7 307.6,-55.5 18.4,-3 37,-3.6 55,-4.1 21.3,-0.6 41.5,-1.1 60.4,-5.5 15.9,-3.8 36.8,-20.1 39.9,-31.3 2,-7.5 0.1,-11.5 -1.5,-13.9 -4.6,-7 -16.4,-12.4 -30.8,-14.3 -9.9,-1.2 -19.7,-2.4 -29.6,-3.6 -31.8,-3.9 -64.8,-7.9 -97.1,-13.7 -56.7,-10.3 -69.3,-21.6 -114.8,-80.3 l -12.1,-15.7 17.3,-9.6 c 20.9,-11.7 43.5,-17.3 68.9,-17.3 27.1,0 53.6,6.4 79.3,12.6 24.6,5.9 47.8,11.6 70.5,11.6 18.3,0 33.9,-3.7 48.6,-11.4 l 4.2,-34.2 c 4,-32.4 8.1,-65.598 12.3,-98.898 2,-15.301 -0.3,-27.102 -6.6,-35.102 -6.1,-7.598 -16.4,-12.199 -30.6,-13.598 -148.7,-14.5 -283.8,-72.703 -414.4,-128.902 -37.9,-16.301 -77.1,-33.199 -115.9,-48.699 -59.9,-23.899 -122.3,-36 -185.5,-36"
         style="fill:#c9c4bc;fill-opacity:1;fill-rule:nonzero;stroke:none"
         id="path20" /><path
         d="m 52478.2,1245.8 h 6119.6 V 1449 h -6119.6 v -203.2"
         style="fill:#c9c4bc;fill-opacity:1;fill-rule:nonzero;stroke:none"
         id="path22" /><path
         d="m 52243.5,19592.6 c -20.8,-172 -49.8,-336.5 -175.1,-459.1 -15.4,-15.2 -31.2,-22.5 -48.3,-22.5 -15.1,0 -30.5,5.5 -50.1,17.8 -32.1,20.1 -65.7,39.2 -98.2,57.6 -25.4,14.4 -51.7,29.3 -77.3,44.8 -12.8,7.7 -23.3,18.4 -33.5,28.7 -4.2,4.3 -8.3,8.5 -12.6,12.5 l -12.9,11.8 12.2,12.5 c 3.2,3.3 6.4,7.4 9.8,11.7 8.6,10.9 18.4,23.3 33.1,28.6 129.1,47.7 243.7,128.6 360.5,254.5 10.5,11.3 112.8,133.2 112.8,133.2 0,0 -19.6,-125.6 -20.4,-132.1 z M 51748.4,1987.4 c 4.3,3.9 8.4,8.2 12.6,12.4 10.2,10.4 20.7,21.1 33.4,28.8 25.7,15.4 52,30.4 77.4,44.8 32.5,18.4 66.1,37.4 98.2,57.6 19.5,12.3 35,17.8 50.1,17.8 17.1,0 32.9,-7.4 48.3,-22.5 125.3,-122.7 154.3,-287.2 175.1,-459 0.8,-6.6 20,-115.3 20,-115.3 0,0 -101.9,105 -112.4,116.3 -116.8,125.9 -231.4,206.8 -360.5,254.4 -14.7,5.4 -24.5,17.8 -33.1,28.7 -3.4,4.3 -6.6,8.3 -9.8,11.6 l -12.2,12.6 z m 580.4,17826.5 c 3.6,58.7 7.3,119.4 8.8,179.5 0.1,4.7 -7.4,17 -12.3,25.1 -0.6,0.9 -1.1,1.9 -1.7,2.8 -4.4,-2.1 -12.5,-6.2 -13.1,-8.2 -49.6,-158.7 -142.4,-292.6 -292.3,-421.2 -134.8,-115.8 -300.8,-168.5 -460.1,-208.1 -249.4,-62.2 -485.3,-180.1 -701.1,-350.7 -88.1,-69.6 -168.3,-155.1 -242.9,-236.6 -315.4,-345.6 -541,-758.2 -670.7,-1226.3 -15.4,-55.8 -32,-112 -48.1,-166.4 -33,-111.9 -67.2,-227.6 -92.1,-343 -29,-134.2 -48.1,-273.6 -66.5,-408.4 -5.1,-37.9 -10.3,-75.9 -15.7,-113.7 -44.2,-309.7 -48.6,-533.4 -54.7,-843 l -0.9,-47.8 c -0.1,-4.6 -0.1,-11.5 0,-20.1 V 5631.7 c -0.1,-8.4 -0.1,-15.2 0,-19.8 l 0.9,-47.8 c 6.1,-309.6 10.5,-533.3 54.7,-843.1 5.4,-37.8 10.6,-75.7 15.7,-113.6 18.4,-134.8 37.5,-274.3 66.5,-408.4 24.9,-115.5 59.1,-231.2 92.1,-343 16.1,-54.4 32.7,-110.7 48.1,-166.5 129.7,-468.1 355.4,-880.7 670.7,-1226.2 74.6,-81.6 154.8,-167.1 242.9,-236.6 215.8,-170.6 451.7,-288.6 701.1,-350.7 159.3,-39.7 325.3,-92.3 460.1,-208.1 149.9,-128.7 242.7,-262.5 292.3,-421.2 0.6,-2 8.7,-6.1 13.1,-8.3 0.6,1 1.1,1.9 1.7,2.9 4.9,8.1 12.4,20.3 12.3,25.1 -1.5,60.1 -5.2,120.8 -8.8,179.5 -1.2,20.7 -3.7,121.5 -4.9,144.1 -3.4,61.6 -6.9,125.3 -10,188.2 -10.6,221.7 -63.6,387.1 -166.7,520.4 -28.2,36.4 -67.1,70.2 -126.1,109.3 -13.9,9.2 -27.5,13.8 -40.5,13.8 -24.7,0 -48.8,-16.4 -71.6,-48.8 -51.6,-73.2 -119.5,-130.2 -213.6,-179.5 -64,-33.6 -129.8,-50 -201.1,-50 -97.5,0 -191.6,31.7 -270.7,62.6 -414.6,161.5 -749.1,501.6 -1022.7,1039.6 -106.9,210.5 -195.4,453.4 -270.6,742.7 -57.9,223.2 -121.3,488.8 -151.7,765.8 l -2.9,26.6 c -9.9,89.8 -20.1,182.7 -24.5,274.9 -4.4,94.9 -9.8,179.2 -15,260.7 -7.1,110.8 -13.8,215.4 -18.1,342.3 v 9943.1 c 4.3,126.3 11,231 18.1,341.8 5.2,81.5 10.6,165.8 15,260.7 4.4,92.1 14.6,185 24.5,274.8 l 2.9,26.7 c 30.4,277 93.8,542.6 151.7,765.8 75.2,289.2 163.7,532.1 270.6,742.7 273.6,538 608.1,878 1022.6,1039.5 79.2,31 173.3,62.6 270.8,62.6 71.3,0 137.1,-16.3 201,-50 94.2,-49.2 162.1,-106.2 213.7,-179.4 22.8,-32.4 46.9,-48.9 71.6,-48.9 v 0 c 13,0 26.6,4.7 40.5,13.9 59,39.1 97.9,72.8 126.1,109.3 103.1,133.3 156.1,298.6 166.7,520.4 3.1,62.9 6.6,126.6 10,188.2 1.2,22.5 3.7,123.3 4.9,144.1"
         style="fill:#c9c4bc;fill-opacity:1;fill-rule:nonzero;stroke:none"
         id="path24" /><path
         d="m 52043.8,1514.1 c -13.4,16.7 -30.6,24.2 -55.8,24.2 -12.7,0 -27.3,-1.8 -47.3,-6 -228,-46.6 -433.8,-86.5 -643.9,-102.3 -168.7,-12.6 -333.5,-19 -489.8,-19 -191.7,0 -378.9,9.6 -556.5,28.6 -203.2,21.8 -406.7,79.6 -603.4,135.5 l -50.2,14.2 c -104.4,29.5 -205,63.1 -288,150.5 -41.4,43.5 -87,105.3 -72.4,197.1 12.2,77.8 24.2,155.8 36.2,233.9 8.9,58.1 17.8,116.3 26.9,174.5 34,218.1 68,437.6 102.3,658.2 20.2,130.6 40.5,261.5 60.9,392.8 l 64.4,304.1 8.8,-360.2 c -4.6,-84.6 -9.9,-170.3 -15,-253.3 -7.3,-118.8 -14.8,-241.7 -20.6,-362.5 -1.7,-34.3 -3.4,-68.6 -5.1,-102.8 -8.2,-162 -16.7,-329.4 -14.4,-494 0.2,-13.1 0.3,-25.5 0.4,-37.3 0.9,-138.8 1.3,-190.7 165,-266.5 108.6,-50 197.9,-83.4 281,-105.3 186.5,-49 375.1,-87.9 560.5,-115.4 142.8,-21.3 308.9,-44 473.8,-44 12.5,0 25,0.1 37.5,0.3 299,6.4 592.9,45.5 840.9,82.9 8.2,1.2 17,4.2 29.3,8.2 0.3,0.1 0.6,0.2 1,0.3 -25.1,28.9 -53.1,42 -88.5,42 -10.2,0 -20.9,-1 -32.7,-3.2 -207.1,-37.7 -397.5,-56 -581.9,-56 -106.4,0 -211.6,6.4 -312.6,18.9 -11.9,1.5 -24.2,1.6 -37.3,1.7 -19.3,0.1 -39.2,0.2 -58.9,5.1 -191.3,47.6 -395.6,101.3 -594,171.4 -280.2,99.4 -436.3,294.8 -463.9,581 -27.8,288.9 -50,551.9 -67.7,803.9 -8.1,115.4 -12.4,232.8 -16.6,346.4 -2.7,72.6 -5.5,147.6 -9.2,221.3 -5.7,111.8 -12.2,225.4 -18.5,335.2 -10.7,187.2 -21.8,380.8 -29,571.3 -6.8,178.5 -8,359.9 -9.2,535.2 -0.5,79.2 -1.1,161.2 -2.1,241.8 -0.7,49.7 -0.5,91.2 -0.3,139.3 l 0.1,5.5 0.2,13 v 78.1 c 0.1,2.7 0.1,5.3 0,8.4 v 9838.3 c 0.1,2.4 0.1,5 0,8.4 v 73.4 h -0.2 l -0.1,22.5 c -0.2,48.1 -0.4,89.6 0.3,139.3 1,80.6 1.6,162.5 2.1,241.7 1.2,175.4 2.4,356.8 9.2,535.3 7.2,190.4 18.3,384 29,571.2 6.3,109.8 12.8,223.4 18.5,335.3 3.7,73.6 6.5,148.7 9.2,221.2 4.2,113.6 8.5,231.1 16.6,346.5 17.7,252 39.9,514.9 67.7,803.9 27.6,286.1 183.7,481.6 464,581 198.4,70.1 678.2,176.6 690.1,178.1 101,12.6 206.2,19 312.6,19 184.5,0 374.8,-18.3 581.9,-56 11.8,-2.2 22.5,-3.2 32.7,-3.2 35.4,0 63.4,13.1 88.5,42 -0.4,0.1 -0.7,0.2 -1.1,0.3 -12.2,4 -21,6.9 -29.1,8.1 -248.1,37.5 -542,76.6 -841,82.9 -12.5,0.3 -25,0.4 -37.5,0.4 -164.9,0 -331,-22.7 -473.8,-44 -185.3,-27.6 -373.9,-66.4 -560.5,-115.5 -83.1,-21.8 -172.4,-55.3 -280.9,-105.2 -163.8,-75.9 -164.2,-127.8 -165.1,-266.5 -0.1,-11.9 -0.2,-24.3 -0.4,-37.3 -2.3,-164.6 6.2,-332.1 14.4,-494 1.7,-34.3 3.4,-68.5 5.1,-102.8 5.8,-120.8 13.3,-243.7 20.6,-362.6 5.1,-82.9 6.9,-586.1 6.9,-586.1 0,0 -105.8,539.1 -126.1,669.6 -34.2,220.7 -68.2,440.1 -102.2,658.1 -9.1,58.3 -18,116.4 -26.9,174.5 -12,78.2 -24,156.2 -36.2,233.9 -14.6,91.9 31,153.6 72.4,197.1 83,87.4 183.6,121.1 287.9,150.5 l 50.2,14.3 c 196.7,55.9 400.2,113.7 603.5,135.4 177.5,19.1 364.8,28.7 556.5,28.7 156.3,0 321.1,-6.4 489.8,-19.1 210.1,-15.8 415.9,-55.7 643.9,-102.3 20,-4.1 34.6,-5.9 47.3,-5.9 25.2,0 42.4,7.4 55.8,24.2 3.3,4.1 5.5,12.3 7.7,20.2 0.1,0.4 0.2,0.8 0.3,1.3 -0.4,0.3 -0.8,0.6 -1.3,0.9 -7,4.8 -14.3,9.7 -19.7,10.9 -134.1,30.6 -268,56.9 -398.2,78.2 -436.6,71.5 -835.2,106.2 -1218.3,106.2 -28.8,0 -57.5,-0.2 -86.2,-0.6 -397.3,-5.1 -742.3,-62 -1054.6,-173.8 -56,-19.9 -115.3,-48.3 -181.5,-86.9 -134.8,-79.2 -187.6,-195.9 -156.8,-346.7 11.6,-57.4 28.6,-118.8 53.3,-193.5 25.6,-77.4 52.7,-156.8 78.8,-233.5 71,-208.7 144.5,-424.4 205.9,-645.9 79.9,-287.9 136.8,-550 173.9,-801.2 41,-276.8 55.7,-556.2 43.5,-830.2 -6.6,-151.2 -6,-305.9 -5.3,-455.6 0.3,-77.8 0.6,-158.4 -0.1,-237.5 -0.5,-66.4 2.2,-129.6 5,-196.6 2.6,-61 5.3,-124 5.3,-190.4 l -0.2,-6.5 c -0.5,-12.3 -0.8,-22 0.1,-29 l 0.1,-1.1 v -9809 l -0.1,-1.1 c -0.9,-7 -0.6,-16.7 -0.1,-29 l 0.2,-7.1 c 0,-65.8 -2.7,-128.8 -5.3,-189.8 -2.8,-67 -5.5,-130.3 -5,-196.6 0.7,-79.2 0.4,-159.7 0.1,-237.6 -0.7,-149.6 -1.3,-304.4 5.3,-455.5 12.2,-274.1 -2.5,-553.4 -43.5,-830.3 -37.1,-251.2 -94,-513.2 -173.9,-801.1 -61.4,-221.5 -134.8,-437.2 -205.9,-645.9 -26.1,-76.7 -53.1,-156.1 -78.8,-233.5 -24.7,-74.7 -41.7,-136.1 -53.3,-193.5 -30.8,-150.9 22,-267.5 156.8,-346.7 66.2,-38.6 125.5,-67 181.5,-87 312.3,-111.8 657.3,-168.6 1054.6,-173.8 28.7,-0.4 57.5,-0.6 86.2,-0.6 383.1,0 781.6,34.8 1218.3,106.2 130.2,21.4 264.1,47.7 398.1,78.2 5.5,1.3 12.8,6.2 19.8,11 0.5,0.3 0.9,0.6 1.3,0.9 -0.1,0.4 -0.2,0.9 -0.3,1.3 -2.2,7.9 -4.4,16 -7.7,20.2"
         style="fill:#c9c4bc;fill-opacity:1;fill-rule:nonzero;stroke:none"
         id="path26" /><path
         d="m 52171.8,1343.8 c -10.2,25.5 -24,35.8 -47.7,35.8 -9.1,0 -19.5,-1.5 -31.7,-4.6 -183.2,-46.6 -380.9,-87.1 -604.5,-123.9 -291.2,-48 -591.8,-80.2 -918.9,-98.3 -86.5,-4.9 -173.3,-7.4 -257.9,-7.4 -417.3,0 -818,61 -1190.7,181.3 l -20.3,6.5 c -123.6,39.4 -251.3,80.1 -367.2,164.4 -124.5,90.8 -150,163.1 -101,286.8 45.4,115 100.2,250.4 161.5,382.3 143.7,308.6 290,643.7 386.6,1002.2 42.7,158.4 97.2,367.9 139.9,583.7 40.9,206.6 42.9,420.7 44.9,627.7 0.7,76.7 1.5,156 4.2,233.9 5.8,167.4 -4.3,485.1 -9.3,554.6 h -2 v 17.1 c 0,43.1 -0.1,86.1 -0.2,129.2 -0.1,97.2 -0.2,197.6 0.4,296.6 l 0.5,13.8 v 10005.7 h -0.4 l -0.1,16.9 c -0.6,99.2 -0.5,200 -0.4,297.4 0.1,42.8 0.2,85.6 0.2,128.4 v 17 h 2 c 5,69.5 15.1,387.3 9.3,554.7 -2.7,77.9 -3.5,157.2 -4.2,233.8 -2,207.1 -4,421.2 -44.9,627.7 -42.7,215.8 -97.2,425.3 -139.9,583.8 -96.6,358.5 -242.9,693.5 -386.6,1002.2 -61.3,131.8 -116.1,267.2 -161.5,382.3 -49,123.6 -23.5,196 101,286.8 115.9,84.3 243.7,125 367.2,164.4 l 20.3,6.4 c 372.7,120.3 773.3,181.4 1190.7,181.4 84.6,0 171.4,-2.5 257.9,-7.5 327.1,-18.1 627.6,-50.2 918.9,-98.2 223.6,-36.8 421.3,-77.4 604.5,-123.9 12.2,-3.2 22.6,-4.7 31.7,-4.7 23.7,0 37.5,10.4 47.7,35.8 13.7,34.3 30.2,69.3 51.7,110.4 5.2,9.8 6.5,17.9 4.1,23.9 -3.7,9.4 -16.4,15.4 -26.3,18.8 -19.3,6.6 -38.5,10.7 -58.9,15.1 -14,3 -28.5,6.1 -42.9,10.1 -332.2,91.1 -665,157.9 -989.3,198.6 -297.5,37.3 -590.5,56.2 -871,56.2 -234.6,0 -466.7,-13.2 -689.9,-39.3 -332.6,-38.3 -646,-132.9 -931.7,-281.2 -79.3,-41.1 -161.9,-97.4 -238.8,-162.7 -136.4,-116.9 -169.9,-223.1 -123.7,-392 19.7,-72 56.9,-136.3 96.3,-204.4 11.7,-20.4 23.9,-41.4 35.5,-62.5 25.4,-46.3 52,-93.7 77.8,-139.6 71.2,-127 144.9,-258.3 211.4,-397.2 83,-173.3 164.2,-366 241.3,-572.7 104.7,-280.7 173.1,-560.6 203.4,-832 15.9,-143 17.5,-289.6 19,-431.3 l 0.5,-48 c 1.6,-131.5 4.4,-330.1 7.1,-525.9 3.9,-277.6 7.6,-539.7 7.9,-611.9 v -17.1 h -0.1 l -0.1,-6.7 c -0.3,-14.4 -0.6,-25.8 0.1,-34.4 v -0.6 -9918.6 -1.2 c -0.7,-8.7 -0.4,-20 -0.1,-34.4 l 0.1,-6.7 h 0.1 v -17.1 c -0.3,-72.2 -4,-334.4 -7.9,-611.9 -2.7,-195.8 -5.5,-394.5 -7.1,-525.9 l -0.5,-48 c -1.5,-141.7 -3.1,-288.3 -19,-431.3 -30.3,-271.4 -98.7,-551.3 -203.4,-832.1 -77.1,-206.7 -158.3,-399.3 -241.3,-572.6 -66.5,-139 -140.2,-270.2 -211.4,-397.2 -25.8,-45.9 -52.4,-93.4 -77.8,-139.6 -11.6,-21.1 -23.8,-42.2 -35.6,-62.6 -39.3,-68 -76.5,-132.3 -96.2,-204.3 -46.2,-168.9 -12.7,-275.1 123.7,-392 76.9,-65.4 159.5,-121.7 238.8,-162.7 285.7,-148.3 599.1,-242.898 931.7,-281.198 223.1,-26.098 455.2,-39.301 689.8,-39.301 280.5,0 573.6,18.902 871.1,56.199 324.3,40.6 657.1,107.4 989.3,198.6 14.4,3.9 28.9,7.1 42.9,10.1 20.4,4.4 39.6,8.5 58.8,15 10,3.5 22.7,9.5 26.4,18.8 2.4,6.1 1.1,14.1 -4.1,23.9 -21.5,41.1 -38,76.2 -51.7,110.4"
         style="fill:#c9c4bc;fill-opacity:1;fill-rule:nonzero;stroke:none"
         id="path28" /><path
         d="m 52478.2,1586.1 h 6119.6 v 52.7 h -6119.6 v -52.7"
         style="fill:#c9c4bc;fill-opacity:1;fill-rule:nonzero;stroke:none"
         id="path30" /><path
         d="m 52478.2,19810.7 h 6119.6 v 203.2 h -6119.6 v -203.2"
         style="fill:#c9c4bc;fill-opacity:1;fill-rule:nonzero;stroke:none"
         id="path32" /><path
         d="m 62047.2,2097.9 c -25.6,77.4 -52.6,156.7 -78.8,233.5 -71,208.6 -144.5,424.4 -205.9,645.9 -79.8,287.8 -136.7,549.9 -173.9,801.1 -41,276.9 -55.6,556.2 -43.5,830.3 6.7,151.1 6,305.9 5.4,455.5 -0.4,77.9 -0.7,158.4 0,237.6 0.6,66.3 -2.1,129.6 -5,196.6 -2.6,61 -5.3,124 -5.3,190.3 l 0.2,6.6 c 0.5,12.3 0.8,22 -0.1,29 l -0.1,1.1 v 9809 l 0.1,1.1 c 0.9,7 0.6,16.7 0.1,29 l -0.2,7.1 c 0,65.8 2.7,128.8 5.3,189.8 2.9,67 5.6,130.2 5,196.6 -0.7,79.1 -0.4,159.7 0,237.5 0.6,149.7 1.3,304.4 -5.4,455.6 -12.1,274 2.5,553.4 43.5,830.2 37.2,251.3 94.1,513.3 173.9,801.2 61.4,221.5 134.9,437.3 206,646 26.1,76.7 53.1,156 78.7,233.4 24.7,74.6 41.7,136.1 53.4,193.5 30.7,150.8 -22.1,267.5 -156.9,346.7 -66.2,38.6 -125.5,67 -181.5,86.9 -312.3,111.8 -657.2,168.7 -1054.6,173.8 -28.7,0.4 -57.4,0.6 -86.2,0.6 -383.1,0 -781.6,-34.7 -1218.3,-106.2 -130.2,-21.3 -264.1,-47.6 -398.1,-78.2 -5.4,-1.2 -12.7,-6.1 -19.8,-10.9 -0.4,-0.3 -0.9,-0.6 -1.3,-0.9 0.1,-0.4 0.2,-0.9 0.3,-1.3 2.2,-7.9 4.4,-16.1 7.8,-20.3 13.3,-16.7 30.5,-24.1 55.7,-24.1 12.7,0 27.3,1.8 47.3,5.9 228,46.6 433.8,86.5 644,102.3 168.6,12.7 333.4,19.1 489.7,19.1 191.8,0 379,-9.6 556.5,-28.7 203.3,-21.7 406.8,-79.5 603.6,-135.4 l 50.1,-14.3 c 104.3,-29.4 204.9,-63.1 287.9,-150.5 41.4,-43.5 87,-105.2 72.5,-197.1 -12.3,-77.7 -24.3,-155.7 -36.3,-233.9 -8.9,-58.1 -17.8,-116.2 -26.9,-174.5 -33.8,-216.9 -67.7,-435.3 -101.7,-654.8 l -130.5,-675.3 10.8,588.5 c 7.3,118.9 14.9,241.8 20.7,362.6 1.6,34.3 3.3,68.5 5,102.8 8.2,161.9 16.7,329.4 14.4,494 -0.2,13 -0.3,25.4 -0.4,37.3 -0.9,138.7 -1.3,190.6 -165,266.5 -108.6,49.9 -197.8,83.4 -281,105.2 -186.6,49.1 -375.2,87.9 -560.5,115.5 -142.8,21.3 -308.9,44 -473.8,44 -12.5,0 -25,-0.1 -37.5,-0.4 -299,-6.3 -592.9,-45.4 -840.9,-82.8 -8.1,-1.3 -17,-4.2 -29.2,-8.2 -0.3,-0.1 -0.7,-0.2 -1,-0.3 25,-28.9 53,-42 88.4,-42 10.2,0 20.9,1 32.7,3.2 207.1,37.7 397.5,56 581.9,56 106.4,0 211.6,-6.4 312.6,-19 11.9,-1.5 24.3,-1.5 37.3,-1.6 19.3,-0.1 39.3,-0.3 58.9,-5.2 191.2,-47.5 395.6,-101.2 594,-171.3 280.2,-99.4 436.3,-294.9 463.9,-581 27.8,-288.9 50,-551.8 67.7,-803.9 8.1,-115.5 12.5,-233 16.7,-346.7 2.7,-72.5 5.4,-147.4 9.2,-221 5.6,-112 12.1,-225.6 18.4,-335.5 10.7,-187.1 21.8,-380.6 29.1,-571 6.8,-178.5 8,-359.8 9.1,-535.1 0.5,-79.3 1.1,-161.3 2.1,-241.9 0.7,-49.9 0.5,-91.7 0.3,-140 v -4.9 l -0.3,-12.9 v -78.1 c -0.1,-2.7 -0.1,-5.3 0,-8.4 V 5710.4 c -0.1,-2.4 -0.1,-5 0,-8.4 v -73.4 h 0.2 l 0.1,-21.8 c 0.2,-48.4 0.4,-90.1 -0.3,-140 -1,-80.7 -1.6,-162.6 -2.1,-241.9 -1.1,-175.3 -2.3,-356.6 -9.1,-535.1 -7.3,-190.4 -18.4,-383.9 -29.1,-571 -6.3,-109.9 -12.8,-223.6 -18.4,-335.5 -3.8,-73.6 -6.5,-148.6 -9.2,-221.1 -4.2,-113.6 -8.6,-231.1 -16.7,-346.6 -17.7,-252.1 -39.9,-515.1 -67.7,-803.9 -27.6,-286.2 -183.7,-481.6 -463.9,-581 -198.4,-70.1 -402.7,-123.8 -594,-171.4 -19.6,-4.9 -39.6,-5 -58.9,-5.1 -13,-0.1 -25.4,-0.2 -37.3,-1.7 -101,-12.5 -206.2,-18.9 -312.6,-18.9 -184.4,0 -374.7,18.3 -581.9,56 -11.8,2.2 -22.5,3.2 -32.7,3.2 -35.4,0 -63.3,-13.1 -88.4,-42 0.3,-0.1 0.6,-0.2 0.9,-0.3 12.3,-4 21.1,-7 29.3,-8.2 248,-37.4 541.9,-76.5 840.9,-82.9 12.5,-0.2 25,-0.3 37.5,-0.3 164.9,0 331,22.7 473.8,44 185.4,27.5 374,66.4 560.5,115.4 83.2,21.9 172.4,55.3 280.9,105.3 163.8,75.8 164.2,127.8 165.1,266.5 0.1,11.8 0.2,24.2 0.4,37.3 2.3,164.6 -6.2,332 -14.4,494 -1.7,34.2 -3.4,68.5 -5,102.8 -5.8,120.8 -13.4,243.7 -20.7,362.5 -5.1,83 -10.4,168.7 -15,253.3 -1.8,33.3 -1.3,67 -0.9,99.7 0.3,15 0.5,30.1 0.5,45.2 v 14 l 47.8,9.1 3.7,-15.9 c 2.3,-9.9 4.9,-19.9 7.4,-29.8 5.5,-21.4 11.2,-43.6 14.7,-66.2 20.6,-132.4 41,-264.4 61.5,-396 34,-219.6 67.9,-438 101.7,-655 9.1,-58.2 18,-116.4 26.9,-174.5 12,-78.1 24,-156.1 36.3,-233.9 14.5,-91.8 -31.1,-153.6 -72.5,-197.1 -83,-87.4 -183.5,-121 -287.9,-150.5 l -50.2,-14.2 c -196.8,-55.9 -400.2,-113.7 -603.5,-135.5 -177.5,-19 -364.7,-28.6 -556.5,-28.6 -156.3,0 -321.1,6.4 -489.7,19 -210.2,15.8 -416,55.7 -644,102.3 -20,4.2 -34.6,6 -47.3,6 -25.2,0 -42.4,-7.5 -55.7,-24.2 -3.4,-4.2 -5.6,-12.3 -7.8,-20.2 -0.1,-0.5 -0.2,-0.9 -0.3,-1.3 0.4,-0.3 0.9,-0.6 1.3,-0.9 7.1,-4.8 14.4,-9.7 19.8,-11 134,-30.5 267.9,-56.8 398.1,-78.2 436.7,-71.4 835.2,-106.2 1218.3,-106.2 28.8,0 57.5,0.2 86.3,0.6 397.3,5.2 742.2,62 1054.6,173.8 55.9,20 115.3,48.4 181.4,87 134.8,79.2 187.6,195.8 156.9,346.7 -11.7,57.4 -28.7,118.8 -53.4,193.5"
         style="fill:#c9c4bc;fill-opacity:1;fill-rule:nonzero;stroke:none"
         id="path34" /><path
         d="m 52478.2,1756 h 6119.6 v 52.7 H 52478.2 V 1756"
         style="fill:#c9c4bc;fill-opacity:1;fill-rule:nonzero;stroke:none"
         id="path36" /><path
         d="m 62684.4,1990.3 c -11.8,20.4 -24,41.5 -35.6,62.6 -25.3,46.2 -52,93.6 -77.7,139.5 -71.3,127 -145,258.3 -211.5,397.3 -83,173.3 -164.2,365.9 -241.3,572.6 -104.7,280.8 -173.1,560.7 -203.3,832.1 -16,142.9 -17.5,289.3 -19.1,430.9 l -0.5,48.4 c -1.6,131.4 -4.4,330.1 -7.1,525.9 -3.9,277.5 -7.6,539.7 -7.8,611.9 l -0.1,17.1 h 0.1 l 0.2,6.7 c 0.3,14.4 0.5,25.7 -0.1,34.4 l -0.1,0.6 v 9918.5 l 0.1,1.3 c 0.6,8.6 0.4,20 0.1,34.4 l -0.2,6.7 h -0.1 l 0.1,17.1 c 0.2,72.2 3.9,334.3 7.8,611.9 2.7,195.8 5.5,394.4 7.1,525.9 l 0.5,48.3 c 1.6,141.7 3.1,288.1 19.1,431 30.2,271.4 98.6,551.3 203.3,832 77.1,206.7 158.3,399.4 241.3,572.7 66.5,139 140.2,270.3 211.5,397.3 25.8,45.9 52.4,93.3 77.7,139.4 11.6,21.2 23.8,42.3 35.6,62.7 39.4,68 76.6,132.3 96.3,204.3 46.2,168.9 12.6,275.1 -123.8,391.9 -76.9,65.4 -159.4,121.7 -238.8,162.8 -285.6,148.3 -599.1,242.9 -931.7,281.2 -223.1,26.1 -455.2,39.3 -689.8,39.3 -280.5,0 -573.6,-18.9 -871.1,-56.2 -324.3,-40.7 -657.1,-107.5 -989.3,-198.6 -14.4,-4 -28.9,-7.1 -42.9,-10.1 -20.4,-4.4 -39.6,-8.5 -58.8,-15.1 -10,-3.4 -22.7,-9.4 -26.4,-18.8 -2.4,-6 -1,-14.1 4.1,-23.9 21.6,-41 38,-76.1 51.7,-110.4 10.3,-25.4 24.1,-35.8 47.7,-35.8 9.1,0 19.5,1.5 31.8,4.7 183.1,46.5 380.9,87.1 604.4,123.9 291.3,48 591.9,80.1 918.9,98.2 86.6,5 173.4,7.5 258,7.5 417.3,0 817.9,-61.1 1190.6,-181.4 l 20.3,-6.4 c 123.6,-39.4 251.4,-80.1 367.3,-164.4 124.4,-90.8 149.9,-163.2 100.9,-286.8 -45.5,-115.2 -100.2,-250.6 -161.5,-382.3 -143.7,-308.7 -290,-643.7 -386.6,-1002.2 -42.7,-158.4 -97.2,-367.9 -139.9,-583.8 -40.9,-206.5 -42.9,-420.6 -44.9,-627.7 -0.7,-76.7 -1.5,-155.9 -4.2,-233.8 -5.8,-167.5 4.3,-485.2 9.3,-554.7 h 2.1 v -17 c -0.1,-43.1 0,-86.3 0.1,-129.4 0.1,-97.1 0.3,-197.5 -0.4,-296.4 l -0.5,-13.8 V 5628.6 h 0.4 l 0.1,-16.9 c 0.7,-99.2 0.5,-199.9 0.4,-297.3 -0.1,-42.8 -0.2,-85.7 -0.2,-128.5 v -17.1 h -2 c -5,-69.5 -15.1,-387.2 -9.3,-554.6 2.7,-77.9 3.5,-157.2 4.2,-233.9 2,-207 4,-421.1 44.9,-627.7 42.7,-215.9 97.2,-425.3 139.9,-583.7 96.6,-358.5 242.9,-693.6 386.6,-1002.2 61.3,-131.7 116.1,-267.2 161.5,-382.3 49,-123.7 23.5,-196 -100.9,-286.8 -115.9,-84.3 -243.7,-125 -367.3,-164.4 l -20.2,-6.4 c -372.8,-120.4 -773.4,-181.4 -1190.8,-181.4 -84.5,0 -171.3,2.5 -257.9,7.4 -327.1,18.1 -627.6,50.3 -918.9,98.3 -223.5,36.8 -421.2,77.3 -604.4,123.9 -12.3,3.1 -22.7,4.6 -31.8,4.6 -23.6,0 -37.4,-10.3 -47.7,-35.8 -13.7,-34.2 -30.1,-69.3 -51.7,-110.4 -5.1,-9.8 -6.5,-17.8 -4.1,-23.9 3.7,-9.3 16.4,-15.3 26.4,-18.8 19.2,-6.5 38.4,-10.6 58.8,-15 14,-3 28.5,-6.1 42.9,-10.1 332.2,-91.2 665,-158 989.3,-198.6 297.5,-37.297 590.6,-56.199 871.1,-56.199 v 0 c 234.6,0 466.7,13.203 689.8,39.301 332.6,38.3 646,132.898 931.7,281.198 79.4,41 161.9,97.3 238.8,162.7 136.4,116.9 170,223.1 123.8,392 -19.7,72 -56.9,136.3 -96.3,204.3"
         style="fill:#c9c4bc;fill-opacity:1;fill-rule:nonzero;stroke:none"
         id="path38" /><path
         d="m 58884.6,1668.3 c -10.5,-11.3 -97.2,-95.7 -97.2,-95.7 0,0 4,88.1 4.8,94.6 20.8,171.9 49.9,336.4 175.1,459.1 15.4,15.1 31.2,22.5 48.4,22.5 15,0 30.5,-5.5 50.1,-17.8 32.1,-20.2 65.6,-39.2 98.1,-57.6 25.4,-14.4 51.7,-29.4 77.4,-44.8 12.7,-7.7 23.3,-18.4 33.4,-28.8 4.2,-4.2 8.4,-8.5 12.7,-12.4 l 12.8,-11.8 -12.2,-12.6 c -3.2,-3.3 -6.4,-7.3 -9.8,-11.6 -8.6,-10.9 -18.4,-23.3 -33,-28.7 -129.2,-47.6 -243.8,-128.5 -360.6,-254.4 z m 402.8,17604.1 c -4.3,-4 -8.5,-8.2 -12.7,-12.5 -10.1,-10.3 -20.7,-21 -33.4,-28.7 -25.7,-15.5 -52,-30.4 -77.4,-44.8 -32.5,-18.4 -66,-37.5 -98.1,-57.6 -19.6,-12.3 -35.1,-17.8 -50.2,-17.8 -17.1,0 -32.9,7.3 -48.2,22.4 -125.3,122.7 -154.4,287.2 -175.2,459.1 -0.8,6.6 -14.9,136.9 -14.9,136.9 0,0 96.8,-126.6 107.3,-137.9 116.8,-126 231.4,-206.8 360.5,-254.4 14.7,-5.4 24.5,-17.8 33.1,-28.7 3.4,-4.3 6.6,-8.4 9.8,-11.7 l 12.2,-12.5 z M 59017.5,1667.9 c 134.8,115.8 300.8,168.4 460.1,208.1 249.4,62.1 485.3,180.1 701.1,350.7 88.1,69.5 168.3,155 243,236.6 315.3,345.5 540.9,758.1 670.6,1226.2 15.4,55.8 32,112 48.1,166.3 33,111.9 67.2,227.7 92.1,343.2 29.1,134.2 48.1,273.7 66.5,408.6 5.2,37.9 10.3,75.7 15.7,113.4 44.2,309.8 48.6,533.5 54.7,843.1 l 0.9,47.8 c 0.1,4.6 0.2,11.4 0,20.1 v 9996.1 c 0.2,8.3 0.1,15.2 0,19.8 l -0.9,47.8 c -6.1,309.6 -10.5,533.3 -54.7,843.1 -5.4,37.7 -10.5,75.5 -15.7,113.4 -18.4,134.9 -37.4,274.4 -66.5,408.6 -24.9,115.5 -59.1,231.2 -92.1,343.1 -16.1,54.4 -32.7,110.6 -48.1,166.3 -129.7,468.1 -355.3,880.7 -670.6,1226.3 -74.6,81.5 -154.9,167 -243,236.6 -215.8,170.6 -451.7,288.5 -701.1,350.7 -159.3,39.6 -325.3,92.3 -460.1,208.1 -149.9,128.6 -242.7,262.5 -292.2,421.2 -0.7,2 -8.7,6.1 -13.2,8.2 -0.5,-0.9 -1.1,-1.9 -1.7,-2.8 -4.9,-8.1 -12.4,-20.4 -12.2,-25.1 1.4,-60.3 5.1,-121.1 8.7,-180 1.3,-20.5 2.5,-41.1 3.7,-61.8 0,0 0,-59.7 1.3,-82.4 3.4,-61.4 6.9,-124.9 9.9,-187.6 10.7,-221.8 63.6,-387.1 166.7,-520.4 28.2,-36.5 67.1,-70.2 126.1,-109.3 13.9,-9.2 27.5,-13.9 40.5,-13.9 24.7,0 48.8,16.5 71.7,48.9 51.6,73.2 119.4,130.2 213.6,179.4 63.9,33.7 129.7,50 201,50 97.5,0 191.6,-31.6 270.8,-62.6 414.5,-161.5 749,-501.5 1022.6,-1039.6 106.9,-210.5 195.4,-453.4 270.6,-742.6 58,-223.2 121.3,-488.8 151.7,-765.8 l 2.9,-26.7 c 9.9,-89.8 20.2,-182.7 24.5,-274.8 4.5,-94.9 9.8,-179.2 15.1,-260.8 7.1,-110.7 13.7,-215.4 18.1,-342.2 V 5658 c -4.4,-126.3 -11,-230.9 -18.1,-341.7 -5.3,-81.5 -10.6,-165.8 -15.1,-260.7 -4.3,-92.1 -14.6,-185 -24.5,-274.9 l -2.9,-26.6 c -30.4,-277 -93.7,-542.6 -151.7,-765.8 -75.2,-289.3 -163.7,-532.2 -270.6,-742.7 -273.6,-538 -608.1,-878.1 -1022.6,-1039.6 -79.2,-30.9 -173.2,-62.5 -270.8,-62.6 -71.3,0 -137.1,16.4 -201,50 -94.2,49.3 -162,106.3 -213.6,179.5 -22.9,32.4 -47,48.8 -71.7,48.8 -13,0 -26.6,-4.6 -40.5,-13.8 -59,-39.1 -97.9,-72.9 -126.1,-109.3 -103.1,-133.3 -156,-298.7 -166.7,-520.4 -3,-62.7 -6.5,-126.2 -9.9,-187.6 -1.3,-22.8 -0.6,-69.3 -0.6,-69.3 l -0.7,-13.2 c -1.2,-20.6 -2.4,-41.2 -3.7,-61.8 -3.6,-58.8 -7.3,-119.6 -8.7,-179.9 -0.2,-4.8 7.3,-17 12.2,-25.1 0.6,-1 1.2,-1.9 1.7,-2.9 4.5,2.2 12.5,6.3 13.2,8.3 49.5,158.7 142.3,292.5 292.2,421.2"
         style="fill:#c9c4bc;fill-opacity:1;fill-rule:nonzero;stroke:none"
         id="path40" /><path
         d="m 52478.2,19621 h 6119.6 v 52.6 h -6119.6 v -52.6"
         style="fill:#c9c4bc;fill-opacity:1;fill-rule:nonzero;stroke:none"
         id="path42" /><path
         d="m 52478.2,19451.1 h 6119.6 v 52.7 h -6119.6 v -52.7"
         style="fill:#c9c4bc;fill-opacity:1;fill-rule:nonzero;stroke:none"
         id="path44" /></g></g></svg>
